<svg width="498" height="70" viewBox="0 0 498 70" fill="none" xmlns="http://www.w3.org/2000/svg">
<rect x="0.5" y="18.5" width="497" height="51" stroke="#A0A0A0"/>
<path d="M7.40527 7.85742V9H3.62109V7.85742H7.40527ZM4.09961 1.89062V9H2.63477V1.89062H4.09961ZM6.91211 4.78613V5.89941H3.62109V4.78613H6.91211ZM7.40039 1.89062V3.03809H3.62109V1.89062H7.40039ZM8.92871 1.89062H10.1689L11.9951 7.11035L13.8213 1.89062H15.0615L12.4932 9H11.4971L8.92871 1.89062ZM8.25977 1.89062H9.49512L9.71973 6.97852V9H8.25977V1.89062ZM14.4951 1.89062H15.7354V9H14.2705V6.97852L14.4951 1.89062ZM19.998 3.10645L18.0645 9H16.5068L19.1484 1.89062H20.1396L19.998 3.10645ZM21.6045 9L19.666 3.10645L19.5098 1.89062H20.5107L23.167 9H21.6045ZM21.5166 6.35352V7.50098H17.7617V6.35352H21.5166ZM25.3838 1.89062V9H23.9238V1.89062H25.3838ZM31.3262 7.85742V9H27.7471V7.85742H31.3262ZM28.2207 1.89062V9H26.7559V1.89062H28.2207ZM37.5469 3.10645L35.6133 9H34.0557L36.6973 1.89062H37.6885L37.5469 3.10645ZM39.1533 9L37.2148 3.10645L37.0586 1.89062H38.0596L40.7158 9H39.1533ZM39.0654 6.35352V7.50098H35.3105V6.35352H39.0654ZM43.5576 9H42.0098L42.0195 7.85742H43.5576C43.9417 7.85742 44.2656 7.77116 44.5293 7.59863C44.793 7.42285 44.9915 7.16732 45.125 6.83203C45.2617 6.49674 45.3301 6.09147 45.3301 5.61621V5.26953C45.3301 4.90495 45.291 4.58431 45.2129 4.30762C45.138 4.03092 45.0257 3.79818 44.876 3.60938C44.7262 3.42057 44.5423 3.27897 44.3242 3.18457C44.1061 3.08691 43.8555 3.03809 43.5723 3.03809H41.9805V1.89062H43.5723C44.0475 1.89062 44.4821 1.97201 44.876 2.13477C45.2731 2.29427 45.6165 2.52376 45.9062 2.82324C46.196 3.12272 46.4189 3.48079 46.5752 3.89746C46.7347 4.31087 46.8145 4.77148 46.8145 5.2793V5.61621C46.8145 6.12077 46.7347 6.58138 46.5752 6.99805C46.4189 7.41471 46.196 7.77279 45.9062 8.07227C45.6198 8.36849 45.2764 8.59798 44.876 8.76074C44.4788 8.92025 44.0394 9 43.5576 9ZM42.8398 1.89062V9H41.375V1.89062H42.8398ZM50.0615 9H48.5137L48.5234 7.85742H50.0615C50.4456 7.85742 50.7695 7.77116 51.0332 7.59863C51.2969 7.42285 51.4954 7.16732 51.6289 6.83203C51.7656 6.49674 51.834 6.09147 51.834 5.61621V5.26953C51.834 4.90495 51.7949 4.58431 51.7168 4.30762C51.6419 4.03092 51.5296 3.79818 51.3799 3.60938C51.2301 3.42057 51.0462 3.27897 50.8281 3.18457C50.61 3.08691 50.3594 3.03809 50.0762 3.03809H48.4844V1.89062H50.0762C50.5514 1.89062 50.986 1.97201 51.3799 2.13477C51.777 2.29427 52.1204 2.52376 52.4102 2.82324C52.6999 3.12272 52.9229 3.48079 53.0791 3.89746C53.2386 4.31087 53.3184 4.77148 53.3184 5.2793V5.61621C53.3184 6.12077 53.2386 6.58138 53.0791 6.99805C52.9229 7.41471 52.6999 7.77279 52.4102 8.07227C52.1237 8.36849 51.7803 8.59798 51.3799 8.76074C50.9827 8.92025 50.5433 9 50.0615 9ZM49.3438 1.89062V9H47.8789V1.89062H49.3438ZM54.3828 1.89062H57.0342C57.5778 1.89062 58.0449 1.97201 58.4355 2.13477C58.8294 2.29753 59.1322 2.53841 59.3438 2.85742C59.5553 3.17643 59.6611 3.56868 59.6611 4.03418C59.6611 4.41504 59.596 4.74219 59.4658 5.01562C59.3389 5.28581 59.1582 5.51204 58.9238 5.69434C58.6927 5.87337 58.4209 6.0166 58.1084 6.12402L57.6445 6.36816H55.3398L55.3301 5.22559H57.0439C57.3011 5.22559 57.5143 5.18001 57.6836 5.08887C57.8529 4.99772 57.9798 4.87077 58.0645 4.70801C58.1523 4.54525 58.1963 4.35645 58.1963 4.1416C58.1963 3.91374 58.154 3.7168 58.0693 3.55078C57.9847 3.38477 57.8561 3.25781 57.6836 3.16992C57.5111 3.08203 57.2946 3.03809 57.0342 3.03809H55.8477V9H54.3828V1.89062ZM58.3574 9L56.7363 5.83105L58.2842 5.82129L59.9248 8.93164V9H58.3574ZM65.5596 7.85742V9H61.7754V7.85742H65.5596ZM62.2539 1.89062V9H60.7891V1.89062H62.2539ZM65.0664 4.78613V5.89941H61.7754V4.78613H65.0664ZM65.5547 1.89062V3.03809H61.7754V1.89062H65.5547ZM70.1152 7.13965C70.1152 7.0127 70.0957 6.89876 70.0566 6.79785C70.0208 6.69368 69.9525 6.59928 69.8516 6.51465C69.7507 6.42676 69.609 6.34049 69.4268 6.25586C69.2445 6.17122 69.0085 6.08333 68.7188 5.99219C68.3965 5.88802 68.0905 5.77083 67.8008 5.64062C67.5143 5.51042 67.2604 5.35905 67.0391 5.18652C66.821 5.01074 66.6484 4.80729 66.5215 4.57617C66.3978 4.34505 66.3359 4.0765 66.3359 3.77051C66.3359 3.47428 66.401 3.20573 66.5312 2.96484C66.6615 2.7207 66.8438 2.51237 67.0781 2.33984C67.3125 2.16406 67.5892 2.02897 67.9082 1.93457C68.2305 1.84017 68.5837 1.79297 68.9678 1.79297C69.4919 1.79297 69.9492 1.88737 70.3398 2.07617C70.7305 2.26497 71.0332 2.52376 71.248 2.85254C71.4661 3.18132 71.5752 3.55729 71.5752 3.98047H70.1201C70.1201 3.77214 70.0762 3.58984 69.9883 3.43359C69.9036 3.27409 69.7734 3.14876 69.5977 3.05762C69.4251 2.96647 69.207 2.9209 68.9434 2.9209C68.6895 2.9209 68.4779 2.95996 68.3086 3.03809C68.1393 3.11296 68.0124 3.21549 67.9277 3.3457C67.8431 3.47266 67.8008 3.61589 67.8008 3.77539C67.8008 3.89583 67.8301 4.00488 67.8887 4.10254C67.9505 4.2002 68.0417 4.29134 68.1621 4.37598C68.2826 4.46061 68.4307 4.54036 68.6064 4.61523C68.7822 4.6901 68.9857 4.76335 69.2168 4.83496C69.6042 4.95215 69.9443 5.08398 70.2373 5.23047C70.5335 5.37695 70.7809 5.54134 70.9795 5.72363C71.1781 5.90592 71.3278 6.11263 71.4287 6.34375C71.5296 6.57487 71.5801 6.83691 71.5801 7.12988C71.5801 7.43913 71.5199 7.71582 71.3994 7.95996C71.279 8.2041 71.1048 8.41081 70.877 8.58008C70.6491 8.74935 70.3773 8.87793 70.0615 8.96582C69.7458 9.05371 69.3926 9.09766 69.002 9.09766C68.6504 9.09766 68.3037 9.05208 67.9619 8.96094C67.6201 8.86654 67.3092 8.72493 67.0293 8.53613C66.7526 8.34733 66.5312 8.10645 66.3652 7.81348C66.1992 7.52051 66.1162 7.17383 66.1162 6.77344H67.5859C67.5859 6.99479 67.6201 7.18197 67.6885 7.33496C67.7568 7.48796 67.8529 7.61165 67.9766 7.70605C68.1035 7.80046 68.2533 7.86882 68.4258 7.91113C68.6016 7.95345 68.7936 7.97461 69.002 7.97461C69.2559 7.97461 69.4642 7.9388 69.627 7.86719C69.793 7.79557 69.915 7.69629 69.9932 7.56934C70.0745 7.44238 70.1152 7.29915 70.1152 7.13965ZM76.2773 7.13965C76.2773 7.0127 76.2578 6.89876 76.2188 6.79785C76.1829 6.69368 76.1146 6.59928 76.0137 6.51465C75.9128 6.42676 75.7712 6.34049 75.5889 6.25586C75.4066 6.17122 75.1706 6.08333 74.8809 5.99219C74.5586 5.88802 74.2526 5.77083 73.9629 5.64062C73.6764 5.51042 73.4225 5.35905 73.2012 5.18652C72.9831 5.01074 72.8105 4.80729 72.6836 4.57617C72.5599 4.34505 72.498 4.0765 72.498 3.77051C72.498 3.47428 72.5632 3.20573 72.6934 2.96484C72.8236 2.7207 73.0059 2.51237 73.2402 2.33984C73.4746 2.16406 73.7513 2.02897 74.0703 1.93457C74.3926 1.84017 74.7458 1.79297 75.1299 1.79297C75.654 1.79297 76.1113 1.88737 76.502 2.07617C76.8926 2.26497 77.1953 2.52376 77.4102 2.85254C77.6283 3.18132 77.7373 3.55729 77.7373 3.98047H76.2822C76.2822 3.77214 76.2383 3.58984 76.1504 3.43359C76.0658 3.27409 75.9355 3.14876 75.7598 3.05762C75.5872 2.96647 75.3691 2.9209 75.1055 2.9209C74.8516 2.9209 74.64 2.95996 74.4707 3.03809C74.3014 3.11296 74.1745 3.21549 74.0898 3.3457C74.0052 3.47266 73.9629 3.61589 73.9629 3.77539C73.9629 3.89583 73.9922 4.00488 74.0508 4.10254C74.1126 4.2002 74.2038 4.29134 74.3242 4.37598C74.4447 4.46061 74.5928 4.54036 74.7686 4.61523C74.9443 4.6901 75.1478 4.76335 75.3789 4.83496C75.7663 4.95215 76.1064 5.08398 76.3994 5.23047C76.6956 5.37695 76.943 5.54134 77.1416 5.72363C77.3402 5.90592 77.4899 6.11263 77.5908 6.34375C77.6917 6.57487 77.7422 6.83691 77.7422 7.12988C77.7422 7.43913 77.682 7.71582 77.5615 7.95996C77.4411 8.2041 77.2669 8.41081 77.0391 8.58008C76.8112 8.74935 76.5394 8.87793 76.2236 8.96582C75.9079 9.05371 75.5547 9.09766 75.1641 9.09766C74.8125 9.09766 74.4658 9.05208 74.124 8.96094C73.7822 8.86654 73.4714 8.72493 73.1914 8.53613C72.9147 8.34733 72.6934 8.10645 72.5273 7.81348C72.3613 7.52051 72.2783 7.17383 72.2783 6.77344H73.748C73.748 6.99479 73.7822 7.18197 73.8506 7.33496C73.9189 7.48796 74.015 7.61165 74.1387 7.70605C74.2656 7.80046 74.4154 7.86882 74.5879 7.91113C74.7637 7.95345 74.9557 7.97461 75.1641 7.97461C75.418 7.97461 75.6263 7.9388 75.7891 7.86719C75.9551 7.79557 76.0771 7.69629 76.1553 7.56934C76.2367 7.44238 76.2773 7.29915 76.2773 7.13965ZM81.209 5.62109L82.2783 4.28809L80.7256 3.84863L81.0186 2.98926L82.542 3.59473L82.4492 1.89062H83.3965L83.2939 3.62891L84.7881 3.02832L85.0762 3.90234L83.499 4.3418L84.5342 5.64551L83.7676 6.18262L82.8691 4.75684L81.9756 6.13867L81.209 5.62109Z" fill="#292929"/>
<path d="M26.2593 49.1797L28.4639 42.0752H29.9141L26.7354 51.2231C26.6621 51.4185 26.5645 51.6284 26.4424 51.853C26.3252 52.0825 26.1738 52.2998 25.9883 52.5049C25.8027 52.71 25.5781 52.876 25.3145 53.0029C25.0557 53.1348 24.7456 53.2007 24.3843 53.2007C24.2769 53.2007 24.1401 53.186 23.9741 53.1567C23.8081 53.1274 23.6909 53.103 23.6226 53.0835L23.6152 51.9849C23.6543 51.9897 23.7153 51.9946 23.7983 51.9995C23.8862 52.0093 23.9473 52.0142 23.9814 52.0142C24.2891 52.0142 24.5503 51.9727 24.7651 51.8896C24.98 51.8115 25.1606 51.6772 25.3071 51.4868C25.4585 51.3013 25.5879 51.0449 25.6953 50.7178L26.2593 49.1797ZM24.6406 42.0752L26.6987 48.2275L27.0503 49.6558L26.0762 50.1538L23.1611 42.0752H24.6406ZM30.6611 46.1255V45.957C30.6611 45.3857 30.7441 44.856 30.9102 44.3677C31.0762 43.8745 31.3154 43.4473 31.6279 43.0859C31.9404 42.7197 32.3188 42.4365 32.7632 42.2363C33.2075 42.0312 33.7056 41.9287 34.2573 41.9287C34.814 41.9287 35.3145 42.0312 35.7588 42.2363C36.208 42.4365 36.5889 42.7197 36.9014 43.0859C37.2188 43.4473 37.4604 43.8745 37.6265 44.3677C37.7925 44.856 37.8755 45.3857 37.8755 45.957V46.1255C37.8755 46.6968 37.7925 47.2266 37.6265 47.7148C37.4604 48.2031 37.2188 48.6304 36.9014 48.9966C36.5889 49.3579 36.2104 49.6411 35.7661 49.8462C35.3267 50.0464 34.8286 50.1465 34.272 50.1465C33.7153 50.1465 33.2148 50.0464 32.7705 49.8462C32.3262 49.6411 31.9453 49.3579 31.6279 48.9966C31.3154 48.6304 31.0762 48.2031 30.9102 47.7148C30.7441 47.2266 30.6611 46.6968 30.6611 46.1255ZM32.0161 45.957V46.1255C32.0161 46.521 32.0625 46.8945 32.1553 47.2461C32.248 47.5928 32.3872 47.9004 32.5728 48.1689C32.7632 48.4375 33 48.6499 33.2832 48.8062C33.5664 48.9575 33.896 49.0332 34.272 49.0332C34.6431 49.0332 34.9678 48.9575 35.2461 48.8062C35.5293 48.6499 35.7637 48.4375 35.9492 48.1689C36.1348 47.9004 36.2739 47.5928 36.3667 47.2461C36.4644 46.8945 36.5132 46.521 36.5132 46.1255V45.957C36.5132 45.5664 36.4644 45.1978 36.3667 44.8511C36.2739 44.4995 36.1323 44.1895 35.9419 43.9209C35.7563 43.6475 35.522 43.4326 35.2388 43.2764C34.9604 43.1201 34.6333 43.042 34.2573 43.042C33.8862 43.042 33.5591 43.1201 33.2759 43.2764C32.9976 43.4326 32.7632 43.6475 32.5728 43.9209C32.3872 44.1895 32.248 44.4995 32.1553 44.8511C32.0625 45.1978 32.0161 45.5664 32.0161 45.957ZM44.4233 48.1689V42.0752H45.7856V50H44.4893L44.4233 48.1689ZM44.6797 46.499L45.2437 46.4844C45.2437 47.0117 45.1875 47.5 45.0752 47.9492C44.9678 48.3936 44.792 48.7793 44.5479 49.1064C44.3037 49.4336 43.9839 49.6899 43.5884 49.8755C43.1929 50.0562 42.7119 50.1465 42.1455 50.1465C41.7598 50.1465 41.4058 50.0903 41.0835 49.978C40.7661 49.8657 40.4927 49.6924 40.2632 49.458C40.0337 49.2236 39.8555 48.9185 39.7285 48.5425C39.6064 48.1665 39.5454 47.7148 39.5454 47.1875V42.0752H40.9004V47.2021C40.9004 47.5586 40.9395 47.854 41.0176 48.0884C41.1006 48.3179 41.2104 48.501 41.3472 48.6377C41.4888 48.7695 41.645 48.8623 41.8159 48.916C41.9917 48.9697 42.1724 48.9966 42.3579 48.9966C42.9341 48.9966 43.3906 48.8867 43.7275 48.667C44.0645 48.4424 44.3062 48.1421 44.4526 47.7661C44.604 47.3853 44.6797 46.9629 44.6797 46.499ZM49.2061 43.3203V50H47.8511V42.0752H49.1694L49.2061 43.3203ZM51.6816 42.0312L51.6743 43.291C51.562 43.2666 51.4546 43.252 51.3521 43.2471C51.2544 43.2373 51.1421 43.2324 51.0151 43.2324C50.7026 43.2324 50.4268 43.2812 50.1875 43.3789C49.9482 43.4766 49.7456 43.6133 49.5796 43.7891C49.4136 43.9648 49.2817 44.1748 49.1841 44.4189C49.0913 44.6582 49.0303 44.9219 49.001 45.21L48.6201 45.4297C48.6201 44.9512 48.6665 44.502 48.7593 44.082C48.8569 43.6621 49.0059 43.291 49.2061 42.9688C49.4062 42.6416 49.6602 42.3877 49.9678 42.207C50.2803 42.0215 50.6514 41.9287 51.0811 41.9287C51.1787 41.9287 51.291 41.9409 51.418 41.9653C51.5449 41.9849 51.6328 42.0068 51.6816 42.0312ZM54.2891 43.7671V50H52.9341V42.0752H54.2158L54.2891 43.7671ZM53.9668 45.7373L53.4028 45.7153C53.4077 45.1733 53.4883 44.6729 53.6445 44.2139C53.8008 43.75 54.0205 43.3472 54.3037 43.0054C54.5869 42.6636 54.9238 42.3999 55.3145 42.2144C55.71 42.0239 56.147 41.9287 56.6255 41.9287C57.0161 41.9287 57.3677 41.9824 57.6802 42.0898C57.9927 42.1924 58.2588 42.3584 58.4785 42.5879C58.7031 42.8174 58.874 43.1152 58.9912 43.4814C59.1084 43.8428 59.167 44.2847 59.167 44.8071V50H57.8047V44.7925C57.8047 44.3774 57.7437 44.0454 57.6216 43.7964C57.4995 43.5425 57.3213 43.3594 57.0869 43.2471C56.8525 43.1299 56.5645 43.0713 56.2227 43.0713C55.8857 43.0713 55.5781 43.1421 55.2998 43.2837C55.0264 43.4253 54.7896 43.6206 54.5894 43.8696C54.394 44.1187 54.2402 44.4043 54.1279 44.7266C54.0205 45.0439 53.9668 45.3809 53.9668 45.7373ZM65.8979 48.645V44.5654C65.8979 44.2529 65.8345 43.9819 65.7075 43.7524C65.5854 43.5181 65.3999 43.3374 65.1509 43.2104C64.9019 43.0835 64.5942 43.02 64.228 43.02C63.8862 43.02 63.5859 43.0786 63.3271 43.1958C63.0732 43.313 62.873 43.4668 62.7266 43.6572C62.585 43.8477 62.5142 44.0527 62.5142 44.2725H61.1592C61.1592 43.9893 61.2324 43.7085 61.3789 43.4302C61.5254 43.1519 61.7354 42.9004 62.0088 42.6758C62.2871 42.4463 62.6191 42.2656 63.0049 42.1338C63.3955 41.9971 63.8301 41.9287 64.3086 41.9287C64.8848 41.9287 65.3926 42.0264 65.832 42.2217C66.2764 42.417 66.623 42.7124 66.8721 43.1079C67.126 43.4985 67.2529 43.9893 67.2529 44.5801V48.2715C67.2529 48.5352 67.2749 48.8159 67.3188 49.1138C67.3677 49.4116 67.4385 49.668 67.5312 49.8828V50H66.1177C66.0493 49.8438 65.9956 49.6362 65.9565 49.3774C65.9175 49.1138 65.8979 48.8696 65.8979 48.645ZM66.1323 45.1953L66.147 46.1475H64.7773C64.3916 46.1475 64.0474 46.1792 63.7446 46.2427C63.4419 46.3013 63.188 46.3916 62.9829 46.5137C62.7778 46.6357 62.6216 46.7896 62.5142 46.9751C62.4067 47.1558 62.353 47.3682 62.353 47.6123C62.353 47.8613 62.4092 48.0884 62.5215 48.2935C62.6338 48.4985 62.8022 48.6621 63.0269 48.7842C63.2563 48.9014 63.5371 48.96 63.8691 48.96C64.2842 48.96 64.6504 48.8721 64.9678 48.6963C65.2852 48.5205 65.5366 48.3057 65.7222 48.0518C65.9126 47.7979 66.0151 47.5513 66.0298 47.312L66.6084 47.9639C66.5742 48.1689 66.4814 48.396 66.3301 48.645C66.1787 48.894 65.9761 49.1333 65.7222 49.3628C65.4731 49.5874 65.1753 49.7754 64.8286 49.9268C64.4868 50.0732 64.1011 50.1465 63.6714 50.1465C63.1343 50.1465 62.6631 50.0415 62.2578 49.8315C61.8574 49.6216 61.5449 49.3408 61.3203 48.9893C61.1006 48.6328 60.9907 48.2349 60.9907 47.7954C60.9907 47.3706 61.0737 46.9971 61.2397 46.6748C61.4058 46.3477 61.645 46.0767 61.9575 45.8618C62.27 45.6421 62.646 45.4761 63.0854 45.3638C63.5249 45.2515 64.0156 45.1953 64.5576 45.1953H66.1323ZM70.7319 43.6499V50H69.3696V42.0752H70.6587L70.7319 43.6499ZM70.4536 45.7373L69.8237 45.7153C69.8286 45.1733 69.8994 44.6729 70.0361 44.2139C70.1729 43.75 70.3755 43.3472 70.644 43.0054C70.9126 42.6636 71.2471 42.3999 71.6475 42.2144C72.0479 42.0239 72.5117 41.9287 73.0391 41.9287C73.4102 41.9287 73.752 41.9824 74.0645 42.0898C74.377 42.1924 74.6479 42.356 74.8774 42.5806C75.1069 42.8052 75.2852 43.0933 75.4121 43.4448C75.5391 43.7964 75.6025 44.2212 75.6025 44.7192V50H74.2476V44.7852C74.2476 44.3701 74.1768 44.0381 74.0352 43.7891C73.8984 43.54 73.7031 43.3594 73.4492 43.2471C73.1953 43.1299 72.8975 43.0713 72.5557 43.0713C72.1553 43.0713 71.8208 43.1421 71.5522 43.2837C71.2837 43.4253 71.0688 43.6206 70.9077 43.8696C70.7466 44.1187 70.6294 44.4043 70.5562 44.7266C70.4878 45.0439 70.4536 45.3809 70.4536 45.7373ZM75.5879 44.9902L74.6797 45.2686C74.6846 44.834 74.7554 44.4165 74.8921 44.0161C75.0337 43.6157 75.2363 43.2593 75.5 42.9468C75.7686 42.6343 76.0981 42.3877 76.4888 42.207C76.8794 42.0215 77.3262 41.9287 77.8291 41.9287C78.2539 41.9287 78.6299 41.9849 78.957 42.0972C79.2891 42.2095 79.5674 42.3828 79.792 42.6172C80.0215 42.8467 80.1948 43.1421 80.312 43.5034C80.4292 43.8647 80.4878 44.2944 80.4878 44.7925V50H79.1255V44.7778C79.1255 44.3335 79.0547 43.9893 78.9131 43.7451C78.7764 43.4961 78.5811 43.3228 78.3271 43.2251C78.0781 43.1226 77.7803 43.0713 77.4336 43.0713C77.1357 43.0713 76.8721 43.1226 76.6426 43.2251C76.4131 43.3276 76.2202 43.4692 76.064 43.6499C75.9077 43.8257 75.7881 44.0283 75.7051 44.2578C75.627 44.4873 75.5879 44.7314 75.5879 44.9902ZM85.8271 50.1465C85.2754 50.1465 84.7749 50.0537 84.3257 49.8682C83.8813 49.6777 83.498 49.4116 83.1758 49.0698C82.8584 48.728 82.6143 48.3228 82.4434 47.854C82.2725 47.3853 82.187 46.8726 82.187 46.3159V46.0083C82.187 45.3638 82.2822 44.79 82.4727 44.2871C82.6631 43.7793 82.9219 43.3496 83.249 42.998C83.5762 42.6465 83.9473 42.3804 84.3623 42.1997C84.7773 42.019 85.207 41.9287 85.6514 41.9287C86.2178 41.9287 86.7061 42.0264 87.1162 42.2217C87.5312 42.417 87.8706 42.6904 88.1343 43.042C88.3979 43.3887 88.5933 43.7988 88.7202 44.2725C88.8472 44.7412 88.9106 45.2539 88.9106 45.8105V46.4185H82.9927V45.3125H87.5557V45.21C87.5361 44.8584 87.4629 44.5166 87.3359 44.1846C87.2139 43.8525 87.0186 43.5791 86.75 43.3643C86.4814 43.1494 86.1152 43.042 85.6514 43.042C85.3438 43.042 85.0605 43.1079 84.8018 43.2397C84.543 43.3667 84.3208 43.5571 84.1353 43.811C83.9497 44.0649 83.8057 44.375 83.7031 44.7412C83.6006 45.1074 83.5493 45.5298 83.5493 46.0083V46.3159C83.5493 46.6919 83.6006 47.0459 83.7031 47.3779C83.8105 47.7051 83.9644 47.9932 84.1646 48.2422C84.3696 48.4912 84.6162 48.6865 84.9043 48.8281C85.1973 48.9697 85.5293 49.0405 85.9004 49.0405C86.3789 49.0405 86.7842 48.9429 87.1162 48.7476C87.4482 48.5522 87.7388 48.291 87.9878 47.9639L88.8081 48.6157C88.6372 48.8745 88.4199 49.1211 88.1562 49.3555C87.8926 49.5898 87.5679 49.7803 87.1821 49.9268C86.8013 50.0732 86.3496 50.1465 85.8271 50.1465ZM102.175 46.3159C102.155 46.7651 102.087 47.2168 101.97 47.6709C101.853 48.1201 101.677 48.5327 101.442 48.9087C101.208 49.2847 100.903 49.5874 100.527 49.8169C100.156 50.0415 99.7065 50.1538 99.1792 50.1538C98.8423 50.1538 98.5469 50.0952 98.293 49.978C98.0439 49.856 97.8389 49.6826 97.6777 49.458C97.5215 49.2334 97.4116 48.9624 97.3481 48.645C97.2896 48.3276 97.2798 47.9736 97.3188 47.583L97.6924 43.5254H98.769L98.3955 47.583C98.3662 47.9395 98.3735 48.23 98.4175 48.4546C98.4663 48.6792 98.5396 48.8525 98.6372 48.9746C98.7349 49.0918 98.8447 49.1724 98.9668 49.2163C99.0938 49.2603 99.2158 49.2822 99.333 49.2822C99.626 49.2822 99.8872 49.2065 100.117 49.0552C100.346 48.8989 100.539 48.6865 100.695 48.418C100.856 48.1445 100.981 47.8296 101.069 47.4731C101.157 47.1118 101.21 46.7261 101.23 46.3159C101.264 45.5884 101.23 44.9194 101.127 44.3091C101.03 43.6987 100.861 43.1567 100.622 42.6831C100.388 42.2095 100.08 41.8091 99.6992 41.4819C99.3184 41.1548 98.8643 40.9058 98.3369 40.7349C97.8096 40.564 97.2065 40.4785 96.5278 40.4785C95.9126 40.4785 95.3438 40.5737 94.8213 40.7642C94.3037 40.9497 93.8374 41.2183 93.4224 41.5698C93.0122 41.9214 92.6582 42.3438 92.3604 42.8369C92.0674 43.3301 91.8354 43.8867 91.6646 44.5068C91.4985 45.1221 91.4009 45.7861 91.3716 46.499C91.3374 47.2314 91.3765 47.9053 91.4888 48.5205C91.6011 49.1309 91.7817 49.6753 92.0308 50.1538C92.2847 50.6372 92.6045 51.0449 92.9902 51.377C93.376 51.7139 93.8228 51.9678 94.3306 52.1387C94.8384 52.3145 95.4048 52.4023 96.0298 52.4023C96.4595 52.4023 96.894 52.3511 97.3335 52.2485C97.7778 52.146 98.1489 52.0068 98.4468 51.8311L98.7251 52.666C98.3833 52.8857 97.9561 53.0493 97.4434 53.1567C96.9355 53.2642 96.4546 53.3179 96.0005 53.3179C95.2583 53.3179 94.5796 53.2153 93.9644 53.0103C93.354 52.8101 92.812 52.5146 92.3384 52.124C91.8696 51.7383 91.479 51.2671 91.1665 50.7104C90.854 50.1587 90.6245 49.5288 90.478 48.8208C90.3315 48.1128 90.2754 47.3389 90.3096 46.499C90.3438 45.6982 90.4634 44.9438 90.6685 44.2358C90.8784 43.5278 91.1641 42.8857 91.5254 42.3096C91.8867 41.7334 92.3164 41.2378 92.8145 40.8228C93.3174 40.4028 93.8813 40.0806 94.5063 39.856C95.1362 39.6313 95.8198 39.519 96.5571 39.519C97.3091 39.519 97.9902 39.6216 98.6006 39.8267C99.2109 40.0317 99.7456 40.3271 100.205 40.7129C100.668 41.0986 101.052 41.5698 101.354 42.1265C101.657 42.6831 101.877 43.313 102.014 44.0161C102.155 44.7192 102.209 45.4858 102.175 46.3159ZM94.6528 46.9385C94.6187 47.2803 94.6187 47.5854 94.6528 47.854C94.687 48.1226 94.7529 48.3496 94.8506 48.5352C94.9482 48.7207 95.0752 48.8623 95.2314 48.96C95.3926 49.0527 95.5806 49.0991 95.7954 49.0991C95.937 49.0991 96.0859 49.0649 96.2422 48.9966C96.3984 48.9233 96.5522 48.811 96.7036 48.6597C96.855 48.5083 96.9966 48.3105 97.1284 48.0664C97.2603 47.8223 97.3701 47.5293 97.458 47.1875L97.9414 47.7148C97.8291 48.1152 97.6826 48.4668 97.502 48.7695C97.3262 49.0723 97.1284 49.3262 96.9087 49.5312C96.689 49.7363 96.4546 49.8926 96.2056 50C95.9614 50.1025 95.7124 50.1538 95.4585 50.1538C95.1021 50.1538 94.7896 50.0781 94.521 49.9268C94.2524 49.7705 94.0352 49.5508 93.8691 49.2676C93.7031 48.9844 93.5859 48.6475 93.5176 48.2568C93.4541 47.8613 93.4443 47.4219 93.4883 46.9385C93.5322 46.4258 93.6226 45.9521 93.7593 45.5176C93.896 45.083 94.0645 44.6948 94.2646 44.353C94.4697 44.0112 94.6992 43.7207 94.9531 43.4814C95.2119 43.2422 95.4854 43.0615 95.7734 42.9395C96.0615 42.8125 96.3569 42.749 96.6597 42.749C97.187 42.749 97.6021 42.8271 97.9048 42.9834C98.2075 43.1348 98.4956 43.3154 98.769 43.5254L98.1465 44.2505C98.0049 44.1138 97.8193 43.9868 97.5898 43.8696C97.3604 43.7524 97.0894 43.6938 96.7769 43.6938C96.5083 43.6938 96.2568 43.7622 96.0225 43.8989C95.7881 44.0356 95.5757 44.2407 95.3853 44.5142C95.1997 44.7876 95.0435 45.127 94.9165 45.5322C94.7896 45.9326 94.7017 46.4014 94.6528 46.9385ZM107.141 49.0332C107.463 49.0332 107.761 48.9673 108.034 48.8354C108.308 48.7036 108.532 48.5229 108.708 48.2935C108.884 48.0591 108.984 47.793 109.008 47.4951H110.297C110.273 47.9639 110.114 48.4009 109.821 48.8062C109.533 49.2065 109.155 49.5312 108.686 49.7803C108.217 50.0244 107.702 50.1465 107.141 50.1465C106.545 50.1465 106.025 50.0415 105.581 49.8315C105.141 49.6216 104.775 49.3335 104.482 48.9673C104.194 48.6011 103.977 48.1812 103.83 47.7075C103.688 47.229 103.618 46.7236 103.618 46.1914V45.8838C103.618 45.3516 103.688 44.8486 103.83 44.375C103.977 43.8965 104.194 43.4741 104.482 43.1079C104.775 42.7417 105.141 42.4536 105.581 42.2437C106.025 42.0337 106.545 41.9287 107.141 41.9287C107.761 41.9287 108.303 42.0557 108.767 42.3096C109.23 42.5586 109.594 42.9004 109.858 43.335C110.126 43.7646 110.273 44.2529 110.297 44.7998H109.008C108.984 44.4727 108.891 44.1772 108.73 43.9136C108.574 43.6499 108.359 43.4399 108.085 43.2837C107.817 43.1226 107.502 43.042 107.141 43.042C106.726 43.042 106.376 43.125 106.093 43.291C105.815 43.4521 105.593 43.6719 105.427 43.9502C105.266 44.2236 105.148 44.5288 105.075 44.8657C105.007 45.1978 104.973 45.5371 104.973 45.8838V46.1914C104.973 46.5381 105.007 46.8799 105.075 47.2168C105.144 47.5537 105.258 47.8589 105.419 48.1323C105.585 48.4058 105.808 48.6255 106.086 48.7915C106.369 48.9526 106.721 49.0332 107.141 49.0332ZM111.462 46.1255V45.957C111.462 45.3857 111.545 44.856 111.711 44.3677C111.877 43.8745 112.116 43.4473 112.429 43.0859C112.741 42.7197 113.12 42.4365 113.564 42.2363C114.008 42.0312 114.506 41.9287 115.058 41.9287C115.615 41.9287 116.115 42.0312 116.56 42.2363C117.009 42.4365 117.39 42.7197 117.702 43.0859C118.02 43.4473 118.261 43.8745 118.427 44.3677C118.593 44.856 118.676 45.3857 118.676 45.957V46.1255C118.676 46.6968 118.593 47.2266 118.427 47.7148C118.261 48.2031 118.02 48.6304 117.702 48.9966C117.39 49.3579 117.011 49.6411 116.567 49.8462C116.127 50.0464 115.629 50.1465 115.073 50.1465C114.516 50.1465 114.016 50.0464 113.571 49.8462C113.127 49.6411 112.746 49.3579 112.429 48.9966C112.116 48.6304 111.877 48.2031 111.711 47.7148C111.545 47.2266 111.462 46.6968 111.462 46.1255ZM112.817 45.957V46.1255C112.817 46.521 112.863 46.8945 112.956 47.2461C113.049 47.5928 113.188 47.9004 113.374 48.1689C113.564 48.4375 113.801 48.6499 114.084 48.8062C114.367 48.9575 114.697 49.0332 115.073 49.0332C115.444 49.0332 115.769 48.9575 116.047 48.8062C116.33 48.6499 116.564 48.4375 116.75 48.1689C116.936 47.9004 117.075 47.5928 117.167 47.2461C117.265 46.8945 117.314 46.521 117.314 46.1255V45.957C117.314 45.5664 117.265 45.1978 117.167 44.8511C117.075 44.4995 116.933 44.1895 116.743 43.9209C116.557 43.6475 116.323 43.4326 116.04 43.2764C115.761 43.1201 115.434 43.042 115.058 43.042C114.687 43.042 114.36 43.1201 114.077 43.2764C113.798 43.4326 113.564 43.6475 113.374 43.9209C113.188 44.1895 113.049 44.4995 112.956 44.8511C112.863 45.1978 112.817 45.5664 112.817 45.957ZM121.723 43.6499V50H120.361V42.0752H121.65L121.723 43.6499ZM121.445 45.7373L120.815 45.7153C120.82 45.1733 120.891 44.6729 121.027 44.2139C121.164 43.75 121.367 43.3472 121.635 43.0054C121.904 42.6636 122.238 42.3999 122.639 42.2144C123.039 42.0239 123.503 41.9287 124.03 41.9287C124.401 41.9287 124.743 41.9824 125.056 42.0898C125.368 42.1924 125.639 42.356 125.869 42.5806C126.098 42.8052 126.276 43.0933 126.403 43.4448C126.53 43.7964 126.594 44.2212 126.594 44.7192V50H125.239V44.7852C125.239 44.3701 125.168 44.0381 125.026 43.7891C124.89 43.54 124.694 43.3594 124.44 43.2471C124.187 43.1299 123.889 43.0713 123.547 43.0713C123.146 43.0713 122.812 43.1421 122.543 43.2837C122.275 43.4253 122.06 43.6206 121.899 43.8696C121.738 44.1187 121.621 44.4043 121.547 44.7266C121.479 45.0439 121.445 45.3809 121.445 45.7373ZM126.579 44.9902L125.671 45.2686C125.676 44.834 125.747 44.4165 125.883 44.0161C126.025 43.6157 126.228 43.2593 126.491 42.9468C126.76 42.6343 127.089 42.3877 127.48 42.207C127.871 42.0215 128.317 41.9287 128.82 41.9287C129.245 41.9287 129.621 41.9849 129.948 42.0972C130.28 42.2095 130.559 42.3828 130.783 42.6172C131.013 42.8467 131.186 43.1421 131.303 43.5034C131.42 43.8647 131.479 44.2944 131.479 44.7925V50H130.117V44.7778C130.117 44.3335 130.046 43.9893 129.904 43.7451C129.768 43.4961 129.572 43.3228 129.318 43.2251C129.069 43.1226 128.771 43.0713 128.425 43.0713C128.127 43.0713 127.863 43.1226 127.634 43.2251C127.404 43.3276 127.211 43.4692 127.055 43.6499C126.899 43.8257 126.779 44.0283 126.696 44.2578C126.618 44.4873 126.579 44.7314 126.579 44.9902ZM134.885 43.5986V53.0469H133.522V42.0752H134.768L134.885 43.5986ZM140.224 45.9717V46.1255C140.224 46.7017 140.156 47.2363 140.019 47.7295C139.882 48.2178 139.682 48.6426 139.418 49.0039C139.16 49.3652 138.84 49.646 138.459 49.8462C138.078 50.0464 137.641 50.1465 137.148 50.1465C136.645 50.1465 136.201 50.0635 135.815 49.8975C135.429 49.7314 135.102 49.4897 134.833 49.1724C134.565 48.855 134.35 48.4741 134.189 48.0298C134.033 47.5854 133.925 47.085 133.867 46.5283V45.708C133.925 45.1221 134.035 44.5972 134.196 44.1333C134.357 43.6694 134.57 43.2739 134.833 42.9468C135.102 42.6147 135.427 42.3633 135.808 42.1924C136.188 42.0166 136.628 41.9287 137.126 41.9287C137.624 41.9287 138.066 42.0264 138.452 42.2217C138.837 42.4121 139.162 42.6855 139.426 43.042C139.689 43.3984 139.887 43.8257 140.019 44.3237C140.156 44.8169 140.224 45.3662 140.224 45.9717ZM138.862 46.1255V45.9717C138.862 45.5762 138.82 45.2051 138.737 44.8584C138.654 44.5068 138.525 44.1992 138.349 43.9355C138.178 43.667 137.958 43.457 137.69 43.3057C137.421 43.1494 137.102 43.0713 136.73 43.0713C136.389 43.0713 136.091 43.1299 135.837 43.2471C135.588 43.3643 135.375 43.5229 135.2 43.7231C135.024 43.9185 134.88 44.1431 134.768 44.397C134.66 44.646 134.58 44.9048 134.526 45.1733V47.0703C134.624 47.4121 134.76 47.7344 134.936 48.0371C135.112 48.335 135.346 48.5767 135.639 48.7622C135.932 48.9429 136.301 49.0332 136.745 49.0332C137.111 49.0332 137.426 48.9575 137.69 48.8062C137.958 48.6499 138.178 48.4375 138.349 48.1689C138.525 47.9004 138.654 47.5928 138.737 47.2461C138.82 46.8945 138.862 46.521 138.862 46.1255ZM146.625 48.645V44.5654C146.625 44.2529 146.562 43.9819 146.435 43.7524C146.313 43.5181 146.127 43.3374 145.878 43.2104C145.629 43.0835 145.322 43.02 144.956 43.02C144.614 43.02 144.313 43.0786 144.055 43.1958C143.801 43.313 143.601 43.4668 143.454 43.6572C143.312 43.8477 143.242 44.0527 143.242 44.2725H141.887C141.887 43.9893 141.96 43.7085 142.106 43.4302C142.253 43.1519 142.463 42.9004 142.736 42.6758C143.015 42.4463 143.347 42.2656 143.732 42.1338C144.123 41.9971 144.558 41.9287 145.036 41.9287C145.612 41.9287 146.12 42.0264 146.56 42.2217C147.004 42.417 147.351 42.7124 147.6 43.1079C147.854 43.4985 147.98 43.9893 147.98 44.5801V48.2715C147.98 48.5352 148.002 48.8159 148.046 49.1138C148.095 49.4116 148.166 49.668 148.259 49.8828V50H146.845C146.777 49.8438 146.723 49.6362 146.684 49.3774C146.645 49.1138 146.625 48.8696 146.625 48.645ZM146.86 45.1953L146.875 46.1475H145.505C145.119 46.1475 144.775 46.1792 144.472 46.2427C144.169 46.3013 143.916 46.3916 143.71 46.5137C143.505 46.6357 143.349 46.7896 143.242 46.9751C143.134 47.1558 143.081 47.3682 143.081 47.6123C143.081 47.8613 143.137 48.0884 143.249 48.2935C143.361 48.4985 143.53 48.6621 143.754 48.7842C143.984 48.9014 144.265 48.96 144.597 48.96C145.012 48.96 145.378 48.8721 145.695 48.6963C146.013 48.5205 146.264 48.3057 146.45 48.0518C146.64 47.7979 146.743 47.5513 146.757 47.312L147.336 47.9639C147.302 48.1689 147.209 48.396 147.058 48.645C146.906 48.894 146.704 49.1333 146.45 49.3628C146.201 49.5874 145.903 49.7754 145.556 49.9268C145.214 50.0732 144.829 50.1465 144.399 50.1465C143.862 50.1465 143.391 50.0415 142.985 49.8315C142.585 49.6216 142.272 49.3408 142.048 48.9893C141.828 48.6328 141.718 48.2349 141.718 47.7954C141.718 47.3706 141.801 46.9971 141.967 46.6748C142.133 46.3477 142.373 46.0767 142.685 45.8618C142.998 45.6421 143.374 45.4761 143.813 45.3638C144.252 45.2515 144.743 45.1953 145.285 45.1953H146.86ZM151.467 43.7671V50H150.112V42.0752H151.394L151.467 43.7671ZM151.145 45.7373L150.581 45.7153C150.585 45.1733 150.666 44.6729 150.822 44.2139C150.979 43.75 151.198 43.3472 151.481 43.0054C151.765 42.6636 152.102 42.3999 152.492 42.2144C152.888 42.0239 153.325 41.9287 153.803 41.9287C154.194 41.9287 154.545 41.9824 154.858 42.0898C155.17 42.1924 155.437 42.3584 155.656 42.5879C155.881 42.8174 156.052 43.1152 156.169 43.4814C156.286 43.8428 156.345 44.2847 156.345 44.8071V50H154.982V44.7925C154.982 44.3774 154.921 44.0454 154.799 43.7964C154.677 43.5425 154.499 43.3594 154.265 43.2471C154.03 43.1299 153.742 43.0713 153.4 43.0713C153.063 43.0713 152.756 43.1421 152.478 43.2837C152.204 43.4253 151.967 43.6206 151.767 43.8696C151.572 44.1187 151.418 44.4043 151.306 44.7266C151.198 45.0439 151.145 45.3809 151.145 45.7373ZM160.629 49.1797L162.834 42.0752H164.284L161.105 51.2231C161.032 51.4185 160.935 51.6284 160.812 51.853C160.695 52.0825 160.544 52.2998 160.358 52.5049C160.173 52.71 159.948 52.876 159.685 53.0029C159.426 53.1348 159.116 53.2007 158.754 53.2007C158.647 53.2007 158.51 53.186 158.344 53.1567C158.178 53.1274 158.061 53.103 157.993 53.0835L157.985 51.9849C158.024 51.9897 158.085 51.9946 158.168 51.9995C158.256 52.0093 158.317 52.0142 158.352 52.0142C158.659 52.0142 158.92 51.9727 159.135 51.8896C159.35 51.8115 159.531 51.6772 159.677 51.4868C159.829 51.3013 159.958 51.0449 160.065 50.7178L160.629 49.1797ZM159.011 42.0752L161.069 48.2275L161.42 49.6558L160.446 50.1538L157.531 42.0752H159.011ZM164.738 49.2822C164.738 49.0527 164.809 48.8599 164.951 48.7036C165.097 48.5425 165.307 48.4619 165.581 48.4619C165.854 48.4619 166.062 48.5425 166.203 48.7036C166.35 48.8599 166.423 49.0527 166.423 49.2822C166.423 49.5068 166.35 49.6973 166.203 49.8535C166.062 50.0098 165.854 50.0879 165.581 50.0879C165.307 50.0879 165.097 50.0098 164.951 49.8535C164.809 49.6973 164.738 49.5068 164.738 49.2822ZM171.843 49.0332C172.165 49.0332 172.463 48.9673 172.736 48.8354C173.01 48.7036 173.234 48.5229 173.41 48.2935C173.586 48.0591 173.686 47.793 173.71 47.4951H175C174.975 47.9639 174.816 48.4009 174.523 48.8062C174.235 49.2065 173.857 49.5312 173.388 49.7803C172.919 50.0244 172.404 50.1465 171.843 50.1465C171.247 50.1465 170.727 50.0415 170.283 49.8315C169.843 49.6216 169.477 49.3335 169.184 48.9673C168.896 48.6011 168.679 48.1812 168.532 47.7075C168.391 47.229 168.32 46.7236 168.32 46.1914V45.8838C168.32 45.3516 168.391 44.8486 168.532 44.375C168.679 43.8965 168.896 43.4741 169.184 43.1079C169.477 42.7417 169.843 42.4536 170.283 42.2437C170.727 42.0337 171.247 41.9287 171.843 41.9287C172.463 41.9287 173.005 42.0557 173.469 42.3096C173.933 42.5586 174.296 42.9004 174.56 43.335C174.829 43.7646 174.975 44.2529 175 44.7998H173.71C173.686 44.4727 173.593 44.1772 173.432 43.9136C173.276 43.6499 173.061 43.4399 172.788 43.2837C172.519 43.1226 172.204 43.042 171.843 43.042C171.428 43.042 171.079 43.125 170.795 43.291C170.517 43.4521 170.295 43.6719 170.129 43.9502C169.968 44.2236 169.851 44.5288 169.777 44.8657C169.709 45.1978 169.675 45.5371 169.675 45.8838V46.1914C169.675 46.5381 169.709 46.8799 169.777 47.2168C169.846 47.5537 169.96 47.8589 170.122 48.1323C170.288 48.4058 170.51 48.6255 170.788 48.7915C171.071 48.9526 171.423 49.0332 171.843 49.0332ZM176.164 46.1255V45.957C176.164 45.3857 176.247 44.856 176.413 44.3677C176.579 43.8745 176.818 43.4473 177.131 43.0859C177.443 42.7197 177.822 42.4365 178.266 42.2363C178.71 42.0312 179.208 41.9287 179.76 41.9287C180.317 41.9287 180.817 42.0312 181.262 42.2363C181.711 42.4365 182.092 42.7197 182.404 43.0859C182.722 43.4473 182.963 43.8745 183.129 44.3677C183.295 44.856 183.378 45.3857 183.378 45.957V46.1255C183.378 46.6968 183.295 47.2266 183.129 47.7148C182.963 48.2031 182.722 48.6304 182.404 48.9966C182.092 49.3579 181.713 49.6411 181.269 49.8462C180.83 50.0464 180.332 50.1465 179.775 50.1465C179.218 50.1465 178.718 50.0464 178.273 49.8462C177.829 49.6411 177.448 49.3579 177.131 48.9966C176.818 48.6304 176.579 48.2031 176.413 47.7148C176.247 47.2266 176.164 46.6968 176.164 46.1255ZM177.519 45.957V46.1255C177.519 46.521 177.565 46.8945 177.658 47.2461C177.751 47.5928 177.89 47.9004 178.076 48.1689C178.266 48.4375 178.503 48.6499 178.786 48.8062C179.069 48.9575 179.399 49.0332 179.775 49.0332C180.146 49.0332 180.471 48.9575 180.749 48.8062C181.032 48.6499 181.267 48.4375 181.452 48.1689C181.638 47.9004 181.777 47.5928 181.87 47.2461C181.967 46.8945 182.016 46.521 182.016 46.1255V45.957C182.016 45.5664 181.967 45.1978 181.87 44.8511C181.777 44.4995 181.635 44.1895 181.445 43.9209C181.259 43.6475 181.025 43.4326 180.742 43.2764C180.463 43.1201 180.136 43.042 179.76 43.042C179.389 43.042 179.062 43.1201 178.779 43.2764C178.5 43.4326 178.266 43.6475 178.076 43.9209C177.89 44.1895 177.751 44.4995 177.658 44.8511C177.565 45.1978 177.519 45.5664 177.519 45.957ZM186.425 43.6499V50H185.063V42.0752H186.352L186.425 43.6499ZM186.147 45.7373L185.517 45.7153C185.522 45.1733 185.593 44.6729 185.729 44.2139C185.866 43.75 186.069 43.3472 186.337 43.0054C186.606 42.6636 186.94 42.3999 187.341 42.2144C187.741 42.0239 188.205 41.9287 188.732 41.9287C189.104 41.9287 189.445 41.9824 189.758 42.0898C190.07 42.1924 190.341 42.356 190.571 42.5806C190.8 42.8052 190.979 43.0933 191.105 43.4448C191.232 43.7964 191.296 44.2212 191.296 44.7192V50H189.941V44.7852C189.941 44.3701 189.87 44.0381 189.729 43.7891C189.592 43.54 189.396 43.3594 189.143 43.2471C188.889 43.1299 188.591 43.0713 188.249 43.0713C187.849 43.0713 187.514 43.1421 187.246 43.2837C186.977 43.4253 186.762 43.6206 186.601 43.8696C186.44 44.1187 186.323 44.4043 186.25 44.7266C186.181 45.0439 186.147 45.3809 186.147 45.7373ZM191.281 44.9902L190.373 45.2686C190.378 44.834 190.449 44.4165 190.585 44.0161C190.727 43.6157 190.93 43.2593 191.193 42.9468C191.462 42.6343 191.792 42.3877 192.182 42.207C192.573 42.0215 193.02 41.9287 193.522 41.9287C193.947 41.9287 194.323 41.9849 194.65 42.0972C194.982 42.2095 195.261 42.3828 195.485 42.6172C195.715 42.8467 195.888 43.1421 196.005 43.5034C196.123 43.8647 196.181 44.2944 196.181 44.7925V50H194.819V44.7778C194.819 44.3335 194.748 43.9893 194.606 43.7451C194.47 43.4961 194.274 43.3228 194.021 43.2251C193.771 43.1226 193.474 43.0713 193.127 43.0713C192.829 43.0713 192.565 43.1226 192.336 43.2251C192.106 43.3276 191.914 43.4692 191.757 43.6499C191.601 43.8257 191.481 44.0283 191.398 44.2578C191.32 44.4873 191.281 44.7314 191.281 44.9902Z" fill="#A0A0A0"/>
</svg>
