<svg width="236" height="70" viewBox="0 0 236 70" fill="none" xmlns="http://www.w3.org/2000/svg">
<rect x="0.5" y="18.5" width="235" height="51" stroke="#A0A0A0"/>
<path d="M5.40332 6.46582H3.5918V5.32324H5.40332C5.68327 5.32324 5.91113 5.27767 6.08691 5.18652C6.2627 5.09212 6.39128 4.96191 6.47266 4.7959C6.55404 4.62988 6.59473 4.44271 6.59473 4.23438C6.59473 4.02279 6.55404 3.82585 6.47266 3.64355C6.39128 3.46126 6.2627 3.31478 6.08691 3.2041C5.91113 3.09342 5.68327 3.03809 5.40332 3.03809H4.09961V9H2.63477V1.89062H5.40332C5.95996 1.89062 6.43685 1.99154 6.83398 2.19336C7.23438 2.39193 7.54036 2.66699 7.75195 3.01855C7.96354 3.37012 8.06934 3.77214 8.06934 4.22461C8.06934 4.68359 7.96354 5.08073 7.75195 5.41602C7.54036 5.7513 7.23438 6.01009 6.83398 6.19238C6.43685 6.37467 5.95996 6.46582 5.40332 6.46582ZM9.08008 1.89062H11.7314C12.2751 1.89062 12.7422 1.97201 13.1328 2.13477C13.5267 2.29753 13.8294 2.53841 14.041 2.85742C14.2526 3.17643 14.3584 3.56868 14.3584 4.03418C14.3584 4.41504 14.2933 4.74219 14.1631 5.01562C14.0361 5.28581 13.8555 5.51204 13.6211 5.69434C13.39 5.87337 13.1182 6.0166 12.8057 6.12402L12.3418 6.36816H10.0371L10.0273 5.22559H11.7412C11.9984 5.22559 12.2116 5.18001 12.3809 5.08887C12.5501 4.99772 12.6771 4.87077 12.7617 4.70801C12.8496 4.54525 12.8936 4.35645 12.8936 4.1416C12.8936 3.91374 12.8512 3.7168 12.7666 3.55078C12.682 3.38477 12.5534 3.25781 12.3809 3.16992C12.2083 3.08203 11.9919 3.03809 11.7314 3.03809H10.5449V9H9.08008V1.89062ZM13.0547 9L11.4336 5.83105L12.9814 5.82129L14.6221 8.93164V9H13.0547ZM20.2568 7.85742V9H16.4727V7.85742H20.2568ZM16.9512 1.89062V9H15.4863V1.89062H16.9512ZM19.7637 4.78613V5.89941H16.4727V4.78613H19.7637ZM20.252 1.89062V3.03809H16.4727V1.89062H20.252ZM22.5762 1.89062V9H21.1113V1.89062H22.5762ZM25.4082 4.92773V6.07031H22.1758V4.92773H25.4082ZM25.75 1.89062V3.03809H22.1758V1.89062H25.75ZM31.3701 7.85742V9H27.5859V7.85742H31.3701ZM28.0645 1.89062V9H26.5996V1.89062H28.0645ZM30.877 4.78613V5.89941H27.5859V4.78613H30.877ZM31.3652 1.89062V3.03809H27.5859V1.89062H31.3652ZM32.2246 1.89062H34.876C35.4196 1.89062 35.8867 1.97201 36.2773 2.13477C36.6712 2.29753 36.974 2.53841 37.1855 2.85742C37.3971 3.17643 37.5029 3.56868 37.5029 4.03418C37.5029 4.41504 37.4378 4.74219 37.3076 5.01562C37.1807 5.28581 37 5.51204 36.7656 5.69434C36.5345 5.87337 36.2627 6.0166 35.9502 6.12402L35.4863 6.36816H33.1816L33.1719 5.22559H34.8857C35.1429 5.22559 35.3561 5.18001 35.5254 5.08887C35.6947 4.99772 35.8216 4.87077 35.9062 4.70801C35.9941 4.54525 36.0381 4.35645 36.0381 4.1416C36.0381 3.91374 35.9958 3.7168 35.9111 3.55078C35.8265 3.38477 35.6979 3.25781 35.5254 3.16992C35.3529 3.08203 35.1364 3.03809 34.876 3.03809H33.6895V9H32.2246V1.89062ZM36.1992 9L34.5781 5.83105L36.126 5.82129L37.7666 8.93164V9H36.1992ZM38.6309 1.89062H41.2822C41.8258 1.89062 42.293 1.97201 42.6836 2.13477C43.0775 2.29753 43.3802 2.53841 43.5918 2.85742C43.8034 3.17643 43.9092 3.56868 43.9092 4.03418C43.9092 4.41504 43.8441 4.74219 43.7139 5.01562C43.5869 5.28581 43.4062 5.51204 43.1719 5.69434C42.9408 5.87337 42.6689 6.0166 42.3564 6.12402L41.8926 6.36816H39.5879L39.5781 5.22559H41.292C41.5492 5.22559 41.7624 5.18001 41.9316 5.08887C42.1009 4.99772 42.2279 4.87077 42.3125 4.70801C42.4004 4.54525 42.4443 4.35645 42.4443 4.1416C42.4443 3.91374 42.402 3.7168 42.3174 3.55078C42.2327 3.38477 42.1042 3.25781 41.9316 3.16992C41.7591 3.08203 41.5426 3.03809 41.2822 3.03809H40.0957V9H38.6309V1.89062ZM42.6055 9L40.9844 5.83105L42.5322 5.82129L44.1729 8.93164V9H42.6055ZM49.8076 7.85742V9H46.0234V7.85742H49.8076ZM46.502 1.89062V9H45.0371V1.89062H46.502ZM49.3145 4.78613V5.89941H46.0234V4.78613H49.3145ZM49.8027 1.89062V3.03809H46.0234V1.89062H49.8027ZM52.8447 9H51.2969L51.3066 7.85742H52.8447C53.2288 7.85742 53.5527 7.77116 53.8164 7.59863C54.0801 7.42285 54.2786 7.16732 54.4121 6.83203C54.5488 6.49674 54.6172 6.09147 54.6172 5.61621V5.26953C54.6172 4.90495 54.5781 4.58431 54.5 4.30762C54.4251 4.03092 54.3128 3.79818 54.1631 3.60938C54.0133 3.42057 53.8294 3.27897 53.6113 3.18457C53.3932 3.08691 53.1426 3.03809 52.8594 3.03809H51.2676V1.89062H52.8594C53.3346 1.89062 53.7692 1.97201 54.1631 2.13477C54.5602 2.29427 54.9036 2.52376 55.1934 2.82324C55.4831 3.12272 55.7061 3.48079 55.8623 3.89746C56.0218 4.31087 56.1016 4.77148 56.1016 5.2793V5.61621C56.1016 6.12077 56.0218 6.58138 55.8623 6.99805C55.7061 7.41471 55.4831 7.77279 55.1934 8.07227C54.9069 8.36849 54.5635 8.59798 54.1631 8.76074C53.766 8.92025 53.3265 9 52.8447 9ZM52.127 1.89062V9H50.6621V1.89062H52.127ZM64.2266 7.85742V9H60.6475V7.85742H64.2266ZM61.1211 1.89062V9H59.6562V1.89062H61.1211ZM68.0547 3.10645L66.1211 9H64.5635L67.2051 1.89062H68.1963L68.0547 3.10645ZM69.6611 9L67.7227 3.10645L67.5664 1.89062H68.5674L71.2236 9H69.6611ZM69.5732 6.35352V7.50098H65.8184V6.35352H69.5732ZM77.6689 1.89062V9H76.2041L73.3477 4.23438V9H71.8828V1.89062H73.3477L76.209 6.66113V1.89062H77.6689ZM84.5781 5.28418V8.10156C84.4674 8.23503 84.2965 8.37988 84.0654 8.53613C83.8343 8.68913 83.5365 8.82096 83.1719 8.93164C82.8073 9.04232 82.3662 9.09766 81.8486 9.09766C81.3896 9.09766 80.9714 9.02279 80.5938 8.87305C80.2161 8.72005 79.8906 8.49707 79.6172 8.2041C79.347 7.91113 79.1387 7.55306 78.9922 7.12988C78.8457 6.70345 78.7725 6.2168 78.7725 5.66992V5.22559C78.7725 4.67871 78.8424 4.19206 78.9824 3.76562C79.1257 3.33919 79.3291 2.97949 79.5928 2.68652C79.8564 2.39355 80.1706 2.17057 80.5352 2.01758C80.8997 1.86458 81.305 1.78809 81.751 1.78809C82.3695 1.78809 82.8773 1.889 83.2744 2.09082C83.6715 2.28939 83.9743 2.56608 84.1826 2.9209C84.3942 3.27246 84.5244 3.67611 84.5732 4.13184H83.1523C83.1165 3.89095 83.0482 3.68099 82.9473 3.50195C82.8464 3.32292 82.7015 3.18294 82.5127 3.08203C82.3271 2.98112 82.0863 2.93066 81.79 2.93066C81.5459 2.93066 81.3278 2.98112 81.1357 3.08203C80.9469 3.17969 80.7874 3.32454 80.6572 3.5166C80.527 3.70866 80.4277 3.94629 80.3594 4.22949C80.291 4.5127 80.2568 4.84147 80.2568 5.21582V5.66992C80.2568 6.04102 80.2926 6.36979 80.3643 6.65625C80.4359 6.93945 80.5417 7.17871 80.6816 7.37402C80.8249 7.56608 81.0007 7.71094 81.209 7.80859C81.4173 7.90625 81.6598 7.95508 81.9365 7.95508C82.1676 7.95508 82.3597 7.93555 82.5127 7.89648C82.6689 7.85742 82.7943 7.81022 82.8887 7.75488C82.9863 7.69629 83.0612 7.64095 83.1133 7.58887V6.3291H81.7754V5.28418H84.5781ZM89.6855 1.89062H91.1455V6.58789C91.1455 7.13477 91.0283 7.59538 90.7939 7.96973C90.5628 8.34408 90.2422 8.62565 89.832 8.81445C89.4251 9.00326 88.9564 9.09766 88.4258 9.09766C87.8952 9.09766 87.4232 9.00326 87.0098 8.81445C86.5996 8.62565 86.2773 8.34408 86.043 7.96973C85.8118 7.59538 85.6963 7.13477 85.6963 6.58789V1.89062H87.1611V6.58789C87.1611 6.9069 87.2116 7.16732 87.3125 7.36914C87.4134 7.57096 87.5583 7.71908 87.7471 7.81348C87.9391 7.90788 88.1654 7.95508 88.4258 7.95508C88.6927 7.95508 88.9189 7.90788 89.1045 7.81348C89.2933 7.71908 89.4365 7.57096 89.5342 7.36914C89.6351 7.16732 89.6855 6.9069 89.6855 6.58789V1.89062ZM95.1348 3.10645L93.2012 9H91.6436L94.2852 1.89062H95.2764L95.1348 3.10645ZM96.7412 9L94.8027 3.10645L94.6465 1.89062H95.6475L98.3037 9H96.7412ZM96.6533 6.35352V7.50098H92.8984V6.35352H96.6533ZM104.51 5.28418V8.10156C104.399 8.23503 104.228 8.37988 103.997 8.53613C103.766 8.68913 103.468 8.82096 103.104 8.93164C102.739 9.04232 102.298 9.09766 101.78 9.09766C101.321 9.09766 100.903 9.02279 100.525 8.87305C100.148 8.72005 99.8223 8.49707 99.5488 8.2041C99.2786 7.91113 99.0703 7.55306 98.9238 7.12988C98.7773 6.70345 98.7041 6.2168 98.7041 5.66992V5.22559C98.7041 4.67871 98.7741 4.19206 98.9141 3.76562C99.0573 3.33919 99.2607 2.97949 99.5244 2.68652C99.7881 2.39355 100.102 2.17057 100.467 2.01758C100.831 1.86458 101.237 1.78809 101.683 1.78809C102.301 1.78809 102.809 1.889 103.206 2.09082C103.603 2.28939 103.906 2.56608 104.114 2.9209C104.326 3.27246 104.456 3.67611 104.505 4.13184H103.084C103.048 3.89095 102.98 3.68099 102.879 3.50195C102.778 3.32292 102.633 3.18294 102.444 3.08203C102.259 2.98112 102.018 2.93066 101.722 2.93066C101.478 2.93066 101.259 2.98112 101.067 3.08203C100.879 3.17969 100.719 3.32454 100.589 3.5166C100.459 3.70866 100.359 3.94629 100.291 4.22949C100.223 4.5127 100.188 4.84147 100.188 5.21582V5.66992C100.188 6.04102 100.224 6.36979 100.296 6.65625C100.368 6.93945 100.473 7.17871 100.613 7.37402C100.757 7.56608 100.932 7.71094 101.141 7.80859C101.349 7.90625 101.591 7.95508 101.868 7.95508C102.099 7.95508 102.291 7.93555 102.444 7.89648C102.601 7.85742 102.726 7.81022 102.82 7.75488C102.918 7.69629 102.993 7.64095 103.045 7.58887V6.3291H101.707V5.28418H104.51ZM110.462 7.85742V9H106.678V7.85742H110.462ZM107.156 1.89062V9H105.691V1.89062H107.156ZM109.969 4.78613V5.89941H106.678V4.78613H109.969ZM110.457 1.89062V3.03809H106.678V1.89062H110.457Z" fill="#292929"/>
<path d="M29.9214 47.3047C29.9214 47.0557 29.8823 46.8359 29.8042 46.6455C29.731 46.4502 29.5991 46.2744 29.4087 46.1182C29.2231 45.9619 28.9644 45.813 28.6323 45.6714C28.3052 45.5298 27.8901 45.3857 27.3872 45.2393C26.8599 45.083 26.3838 44.9097 25.959 44.7192C25.5342 44.5239 25.1704 44.3018 24.8677 44.0527C24.5649 43.8037 24.333 43.5181 24.1719 43.1958C24.0107 42.8735 23.9302 42.5049 23.9302 42.0898C23.9302 41.6748 24.0156 41.2915 24.1865 40.9399C24.3574 40.5884 24.6016 40.2832 24.9189 40.0244C25.2412 39.7607 25.6245 39.5557 26.0688 39.4092C26.5132 39.2627 27.0088 39.1895 27.5557 39.1895C28.3564 39.1895 29.0352 39.3433 29.5918 39.6509C30.1533 39.9536 30.5806 40.3516 30.8735 40.8447C31.1665 41.333 31.313 41.8555 31.313 42.4121H29.9067C29.9067 42.0117 29.8213 41.6577 29.6504 41.3501C29.4795 41.0376 29.2207 40.7935 28.874 40.6177C28.5273 40.437 28.0879 40.3467 27.5557 40.3467C27.0527 40.3467 26.6377 40.4224 26.3105 40.5737C25.9834 40.7251 25.7393 40.9302 25.5781 41.189C25.4219 41.4478 25.3438 41.7432 25.3438 42.0752C25.3438 42.2998 25.3901 42.5049 25.4829 42.6904C25.5806 42.8711 25.7295 43.0396 25.9297 43.1958C26.1348 43.3521 26.3936 43.4961 26.7061 43.6279C27.0234 43.7598 27.4019 43.8867 27.8413 44.0088C28.4468 44.1797 28.9692 44.3701 29.4087 44.5801C29.8481 44.79 30.2095 45.0269 30.4927 45.2905C30.7808 45.5493 30.9932 45.8447 31.1299 46.1768C31.2715 46.5039 31.3423 46.875 31.3423 47.29C31.3423 47.7246 31.2544 48.1177 31.0786 48.4692C30.9028 48.8208 30.6514 49.1211 30.3242 49.3701C29.9971 49.6191 29.604 49.812 29.145 49.9487C28.6909 50.0806 28.1831 50.1465 27.6216 50.1465C27.1284 50.1465 26.6426 50.0781 26.1641 49.9414C25.6904 49.8047 25.2583 49.5996 24.8677 49.3262C24.4819 49.0527 24.1719 48.7158 23.9375 48.3154C23.708 47.9102 23.5933 47.4414 23.5933 46.9092H24.9995C24.9995 47.2754 25.0703 47.5903 25.2119 47.854C25.3535 48.1128 25.5464 48.3276 25.7905 48.4985C26.0396 48.6694 26.3203 48.7964 26.6328 48.8794C26.9502 48.9575 27.2798 48.9966 27.6216 48.9966C28.1147 48.9966 28.5322 48.9282 28.874 48.7915C29.2158 48.6548 29.4746 48.4595 29.6504 48.2056C29.8311 47.9517 29.9214 47.6514 29.9214 47.3047ZM36.2275 50.1465C35.6758 50.1465 35.1753 50.0537 34.7261 49.8682C34.2817 49.6777 33.8984 49.4116 33.5762 49.0698C33.2588 48.728 33.0146 48.3228 32.8438 47.854C32.6729 47.3853 32.5874 46.8726 32.5874 46.3159V46.0083C32.5874 45.3638 32.6826 44.79 32.873 44.2871C33.0635 43.7793 33.3223 43.3496 33.6494 42.998C33.9766 42.6465 34.3477 42.3804 34.7627 42.1997C35.1777 42.019 35.6074 41.9287 36.0518 41.9287C36.6182 41.9287 37.1064 42.0264 37.5166 42.2217C37.9316 42.417 38.271 42.6904 38.5347 43.042C38.7983 43.3887 38.9937 43.7988 39.1206 44.2725C39.2476 44.7412 39.311 45.2539 39.311 45.8105V46.4185H33.3931V45.3125H37.9561V45.21C37.9365 44.8584 37.8633 44.5166 37.7363 44.1846C37.6143 43.8525 37.4189 43.5791 37.1504 43.3643C36.8818 43.1494 36.5156 43.042 36.0518 43.042C35.7441 43.042 35.4609 43.1079 35.2021 43.2397C34.9434 43.3667 34.7212 43.5571 34.5356 43.811C34.3501 44.0649 34.2061 44.375 34.1035 44.7412C34.001 45.1074 33.9497 45.5298 33.9497 46.0083V46.3159C33.9497 46.6919 34.001 47.0459 34.1035 47.3779C34.2109 47.7051 34.3647 47.9932 34.5649 48.2422C34.77 48.4912 35.0166 48.6865 35.3047 48.8281C35.5977 48.9697 35.9297 49.0405 36.3008 49.0405C36.7793 49.0405 37.1846 48.9429 37.5166 48.7476C37.8486 48.5522 38.1392 48.291 38.3882 47.9639L39.2085 48.6157C39.0376 48.8745 38.8203 49.1211 38.5566 49.3555C38.293 49.5898 37.9683 49.7803 37.5825 49.9268C37.2017 50.0732 36.75 50.1465 36.2275 50.1465ZM42.3652 38.75V50H41.0029V38.75H42.3652ZM47.8291 50.1465C47.2773 50.1465 46.7769 50.0537 46.3276 49.8682C45.8833 49.6777 45.5 49.4116 45.1777 49.0698C44.8604 48.728 44.6162 48.3228 44.4453 47.854C44.2744 47.3853 44.189 46.8726 44.189 46.3159V46.0083C44.189 45.3638 44.2842 44.79 44.4746 44.2871C44.665 43.7793 44.9238 43.3496 45.251 42.998C45.5781 42.6465 45.9492 42.3804 46.3643 42.1997C46.7793 42.019 47.209 41.9287 47.6533 41.9287C48.2197 41.9287 48.708 42.0264 49.1182 42.2217C49.5332 42.417 49.8726 42.6904 50.1362 43.042C50.3999 43.3887 50.5952 43.7988 50.7222 44.2725C50.8491 44.7412 50.9126 45.2539 50.9126 45.8105V46.4185H44.9946V45.3125H49.5576V45.21C49.5381 44.8584 49.4648 44.5166 49.3379 44.1846C49.2158 43.8525 49.0205 43.5791 48.752 43.3643C48.4834 43.1494 48.1172 43.042 47.6533 43.042C47.3457 43.042 47.0625 43.1079 46.8037 43.2397C46.5449 43.3667 46.3228 43.5571 46.1372 43.811C45.9517 44.0649 45.8076 44.375 45.7051 44.7412C45.6025 45.1074 45.5513 45.5298 45.5513 46.0083V46.3159C45.5513 46.6919 45.6025 47.0459 45.7051 47.3779C45.8125 47.7051 45.9663 47.9932 46.1665 48.2422C46.3716 48.4912 46.6182 48.6865 46.9062 48.8281C47.1992 48.9697 47.5312 49.0405 47.9023 49.0405C48.3809 49.0405 48.7861 48.9429 49.1182 48.7476C49.4502 48.5522 49.7407 48.291 49.9897 47.9639L50.8101 48.6157C50.6392 48.8745 50.4219 49.1211 50.1582 49.3555C49.8945 49.5898 49.5698 49.7803 49.1841 49.9268C48.8032 50.0732 48.3516 50.1465 47.8291 50.1465ZM55.666 49.0332C55.9883 49.0332 56.2861 48.9673 56.5596 48.8354C56.833 48.7036 57.0576 48.5229 57.2334 48.2935C57.4092 48.0591 57.5093 47.793 57.5337 47.4951H58.8228C58.7983 47.9639 58.6396 48.4009 58.3467 48.8062C58.0586 49.2065 57.6802 49.5312 57.2114 49.7803C56.7427 50.0244 56.2275 50.1465 55.666 50.1465C55.0703 50.1465 54.5503 50.0415 54.106 49.8315C53.6665 49.6216 53.3003 49.3335 53.0073 48.9673C52.7192 48.6011 52.502 48.1812 52.3555 47.7075C52.2139 47.229 52.1431 46.7236 52.1431 46.1914V45.8838C52.1431 45.3516 52.2139 44.8486 52.3555 44.375C52.502 43.8965 52.7192 43.4741 53.0073 43.1079C53.3003 42.7417 53.6665 42.4536 54.106 42.2437C54.5503 42.0337 55.0703 41.9287 55.666 41.9287C56.2861 41.9287 56.8281 42.0557 57.292 42.3096C57.7559 42.5586 58.1196 42.9004 58.3833 43.335C58.6519 43.7646 58.7983 44.2529 58.8228 44.7998H57.5337C57.5093 44.4727 57.4165 44.1772 57.2554 43.9136C57.0991 43.6499 56.8843 43.4399 56.6108 43.2837C56.3423 43.1226 56.0273 43.042 55.666 43.042C55.251 43.042 54.9019 43.125 54.6187 43.291C54.3403 43.4521 54.1182 43.6719 53.9521 43.9502C53.791 44.2236 53.6738 44.5288 53.6006 44.8657C53.5322 45.1978 53.498 45.5371 53.498 45.8838V46.1914C53.498 46.5381 53.5322 46.8799 53.6006 47.2168C53.6689 47.5537 53.7837 47.8589 53.9448 48.1323C54.1108 48.4058 54.333 48.6255 54.6113 48.7915C54.8945 48.9526 55.2461 49.0332 55.666 49.0332ZM63.6641 42.0752V43.1152H59.3794V42.0752H63.6641ZM60.8296 40.1489H62.1846V48.0371C62.1846 48.3057 62.2261 48.5083 62.3091 48.645C62.3921 48.7817 62.4995 48.8721 62.6313 48.916C62.7632 48.96 62.9048 48.9819 63.0562 48.9819C63.1685 48.9819 63.2856 48.9722 63.4077 48.9526C63.5347 48.9282 63.6299 48.9087 63.6934 48.894L63.7007 50C63.5933 50.0342 63.4517 50.0659 63.2759 50.0952C63.105 50.1294 62.8975 50.1465 62.6533 50.1465C62.3213 50.1465 62.0161 50.0806 61.7378 49.9487C61.4595 49.8169 61.2373 49.5972 61.0713 49.2896C60.9102 48.9771 60.8296 48.5571 60.8296 48.0298V40.1489Z" fill="#383838"/>
</svg>
