<svg width="498" height="70" viewBox="0 0 498 70" fill="none" xmlns="http://www.w3.org/2000/svg">
<rect x="0.5" y="18.5" width="497" height="51" stroke="#A0A0A0"/>
<path d="M8.4209 1.89062V9H6.95605L4.09961 4.23438V9H2.63477V1.89062H4.09961L6.96094 6.66113V1.89062H8.4209ZM12.6738 3.10645L10.7402 9H9.18262L11.8242 1.89062H12.8154L12.6738 3.10645ZM14.2803 9L12.3418 3.10645L12.1855 1.89062H13.1865L15.8428 9H14.2803ZM14.1924 6.35352V7.50098H10.4375V6.35352H14.1924ZM17.1709 1.89062H18.4111L20.2373 7.11035L22.0635 1.89062H23.3037L20.7354 9H19.7393L17.1709 1.89062ZM16.502 1.89062H17.7373L17.9619 6.97852V9H16.502V1.89062ZM22.7373 1.89062H23.9775V9H22.5127V6.97852L22.7373 1.89062ZM30.0322 7.85742V9H26.248V7.85742H30.0322ZM26.7266 1.89062V9H25.2617V1.89062H26.7266ZM29.5391 4.78613V5.89941H26.248V4.78613H29.5391ZM30.0273 1.89062V3.03809H26.248V1.89062H30.0273ZM33.3574 5.62109L34.4268 4.28809L32.874 3.84863L33.167 2.98926L34.6904 3.59473L34.5977 1.89062H35.5449L35.4424 3.62891L36.9365 3.02832L37.2246 3.90234L35.6475 4.3418L36.6826 5.64551L35.916 6.18262L35.0176 4.75684L34.124 6.13867L33.3574 5.62109Z" fill="#292929"/>
<path d="M31.0127 48.8501V50H25.3657V48.8501H31.0127ZM25.6514 39.3359V50H24.2378V39.3359H25.6514ZM30.2656 43.9209V45.0708H25.3657V43.9209H30.2656ZM30.9395 39.3359V40.4932H25.3657V39.3359H30.9395ZM33.9131 43.7671V50H32.5581V42.0752H33.8398L33.9131 43.7671ZM33.5908 45.7373L33.0269 45.7153C33.0317 45.1733 33.1123 44.6729 33.2686 44.2139C33.4248 43.75 33.6445 43.3472 33.9277 43.0054C34.2109 42.6636 34.5479 42.3999 34.9385 42.2144C35.334 42.0239 35.771 41.9287 36.2495 41.9287C36.6401 41.9287 36.9917 41.9824 37.3042 42.0898C37.6167 42.1924 37.8828 42.3584 38.1025 42.5879C38.3271 42.8174 38.498 43.1152 38.6152 43.4814C38.7324 43.8428 38.791 44.2847 38.791 44.8071V50H37.4287V44.7925C37.4287 44.3774 37.3677 44.0454 37.2456 43.7964C37.1235 43.5425 36.9453 43.3594 36.7109 43.2471C36.4766 43.1299 36.1885 43.0713 35.8467 43.0713C35.5098 43.0713 35.2021 43.1421 34.9238 43.2837C34.6504 43.4253 34.4136 43.6206 34.2134 43.8696C34.0181 44.1187 33.8643 44.4043 33.752 44.7266C33.6445 45.0439 33.5908 45.3809 33.5908 45.7373ZM44.167 42.0752V43.1152H39.8823V42.0752H44.167ZM41.3325 40.1489H42.6875V48.0371C42.6875 48.3057 42.729 48.5083 42.812 48.645C42.895 48.7817 43.0024 48.8721 43.1343 48.916C43.2661 48.96 43.4077 48.9819 43.5591 48.9819C43.6714 48.9819 43.7886 48.9722 43.9106 48.9526C44.0376 48.9282 44.1328 48.9087 44.1963 48.894L44.2036 50C44.0962 50.0342 43.9546 50.0659 43.7788 50.0952C43.6079 50.1294 43.4004 50.1465 43.1562 50.1465C42.8242 50.1465 42.519 50.0806 42.2407 49.9487C41.9624 49.8169 41.7402 49.5972 41.5742 49.2896C41.4131 48.9771 41.3325 48.5571 41.3325 48.0298V40.1489ZM49.0449 50.1465C48.4932 50.1465 47.9927 50.0537 47.5435 49.8682C47.0991 49.6777 46.7158 49.4116 46.3936 49.0698C46.0762 48.728 45.832 48.3228 45.6611 47.854C45.4902 47.3853 45.4048 46.8726 45.4048 46.3159V46.0083C45.4048 45.3638 45.5 44.79 45.6904 44.2871C45.8809 43.7793 46.1396 43.3496 46.4668 42.998C46.7939 42.6465 47.165 42.3804 47.5801 42.1997C47.9951 42.019 48.4248 41.9287 48.8691 41.9287C49.4355 41.9287 49.9238 42.0264 50.334 42.2217C50.749 42.417 51.0884 42.6904 51.3521 43.042C51.6157 43.3887 51.811 43.7988 51.938 44.2725C52.0649 44.7412 52.1284 45.2539 52.1284 45.8105V46.4185H46.2104V45.3125H50.7734V45.21C50.7539 44.8584 50.6807 44.5166 50.5537 44.1846C50.4316 43.8525 50.2363 43.5791 49.9678 43.3643C49.6992 43.1494 49.333 43.042 48.8691 43.042C48.5615 43.042 48.2783 43.1079 48.0195 43.2397C47.7607 43.3667 47.5386 43.5571 47.353 43.811C47.1675 44.0649 47.0234 44.375 46.9209 44.7412C46.8184 45.1074 46.7671 45.5298 46.7671 46.0083V46.3159C46.7671 46.6919 46.8184 47.0459 46.9209 47.3779C47.0283 47.7051 47.1821 47.9932 47.3823 48.2422C47.5874 48.4912 47.834 48.6865 48.1221 48.8281C48.415 48.9697 48.7471 49.0405 49.1182 49.0405C49.5967 49.0405 50.002 48.9429 50.334 48.7476C50.666 48.5522 50.9565 48.291 51.2056 47.9639L52.0259 48.6157C51.855 48.8745 51.6377 49.1211 51.374 49.3555C51.1104 49.5898 50.7856 49.7803 50.3999 49.9268C50.019 50.0732 49.5674 50.1465 49.0449 50.1465ZM55.0654 43.3203V50H53.7104V42.0752H55.0288L55.0654 43.3203ZM57.541 42.0312L57.5337 43.291C57.4214 43.2666 57.314 43.252 57.2114 43.2471C57.1138 43.2373 57.0015 43.2324 56.8745 43.2324C56.562 43.2324 56.2861 43.2812 56.0469 43.3789C55.8076 43.4766 55.605 43.6133 55.439 43.7891C55.2729 43.9648 55.1411 44.1748 55.0435 44.4189C54.9507 44.6582 54.8896 44.9219 54.8604 45.21L54.4795 45.4297C54.4795 44.9512 54.5259 44.502 54.6187 44.082C54.7163 43.6621 54.8652 43.291 55.0654 42.9688C55.2656 42.6416 55.5195 42.3877 55.8271 42.207C56.1396 42.0215 56.5107 41.9287 56.9404 41.9287C57.0381 41.9287 57.1504 41.9409 57.2773 41.9653C57.4043 41.9849 57.4922 42.0068 57.541 42.0312ZM64.7407 49.1797L66.9453 42.0752H68.3955L65.2168 51.2231C65.1436 51.4185 65.0459 51.6284 64.9238 51.853C64.8066 52.0825 64.6553 52.2998 64.4697 52.5049C64.2842 52.71 64.0596 52.876 63.7959 53.0029C63.5371 53.1348 63.2271 53.2007 62.8657 53.2007C62.7583 53.2007 62.6216 53.186 62.4556 53.1567C62.2896 53.1274 62.1724 53.103 62.104 53.0835L62.0967 51.9849C62.1357 51.9897 62.1968 51.9946 62.2798 51.9995C62.3677 52.0093 62.4287 52.0142 62.4629 52.0142C62.7705 52.0142 63.0317 51.9727 63.2466 51.8896C63.4614 51.8115 63.6421 51.6772 63.7886 51.4868C63.9399 51.3013 64.0693 51.0449 64.1768 50.7178L64.7407 49.1797ZM63.1221 42.0752L65.1802 48.2275L65.5317 49.6558L64.5576 50.1538L61.6426 42.0752H63.1221ZM69.1426 46.1255V45.957C69.1426 45.3857 69.2256 44.856 69.3916 44.3677C69.5576 43.8745 69.7969 43.4473 70.1094 43.0859C70.4219 42.7197 70.8003 42.4365 71.2446 42.2363C71.689 42.0312 72.187 41.9287 72.7388 41.9287C73.2954 41.9287 73.7959 42.0312 74.2402 42.2363C74.6895 42.4365 75.0703 42.7197 75.3828 43.0859C75.7002 43.4473 75.9419 43.8745 76.1079 44.3677C76.2739 44.856 76.3569 45.3857 76.3569 45.957V46.1255C76.3569 46.6968 76.2739 47.2266 76.1079 47.7148C75.9419 48.2031 75.7002 48.6304 75.3828 48.9966C75.0703 49.3579 74.6919 49.6411 74.2476 49.8462C73.8081 50.0464 73.3101 50.1465 72.7534 50.1465C72.1968 50.1465 71.6963 50.0464 71.252 49.8462C70.8076 49.6411 70.4268 49.3579 70.1094 48.9966C69.7969 48.6304 69.5576 48.2031 69.3916 47.7148C69.2256 47.2266 69.1426 46.6968 69.1426 46.1255ZM70.4976 45.957V46.1255C70.4976 46.521 70.5439 46.8945 70.6367 47.2461C70.7295 47.5928 70.8687 47.9004 71.0542 48.1689C71.2446 48.4375 71.4814 48.6499 71.7646 48.8062C72.0479 48.9575 72.3774 49.0332 72.7534 49.0332C73.1245 49.0332 73.4492 48.9575 73.7275 48.8062C74.0107 48.6499 74.2451 48.4375 74.4307 48.1689C74.6162 47.9004 74.7554 47.5928 74.8481 47.2461C74.9458 46.8945 74.9946 46.521 74.9946 46.1255V45.957C74.9946 45.5664 74.9458 45.1978 74.8481 44.8511C74.7554 44.4995 74.6138 44.1895 74.4233 43.9209C74.2378 43.6475 74.0034 43.4326 73.7202 43.2764C73.4419 43.1201 73.1147 43.042 72.7388 43.042C72.3677 43.042 72.0405 43.1201 71.7573 43.2764C71.479 43.4326 71.2446 43.6475 71.0542 43.9209C70.8687 44.1895 70.7295 44.4995 70.6367 44.8511C70.5439 45.1978 70.4976 45.5664 70.4976 45.957ZM82.9048 48.1689V42.0752H84.2671V50H82.9707L82.9048 48.1689ZM83.1611 46.499L83.7251 46.4844C83.7251 47.0117 83.6689 47.5 83.5566 47.9492C83.4492 48.3936 83.2734 48.7793 83.0293 49.1064C82.7852 49.4336 82.4653 49.6899 82.0698 49.8755C81.6743 50.0562 81.1934 50.1465 80.627 50.1465C80.2412 50.1465 79.8872 50.0903 79.5649 49.978C79.2476 49.8657 78.9741 49.6924 78.7446 49.458C78.5151 49.2236 78.3369 48.9185 78.21 48.5425C78.0879 48.1665 78.0269 47.7148 78.0269 47.1875V42.0752H79.3818V47.2021C79.3818 47.5586 79.4209 47.854 79.499 48.0884C79.582 48.3179 79.6919 48.501 79.8286 48.6377C79.9702 48.7695 80.1265 48.8623 80.2974 48.916C80.4731 48.9697 80.6538 48.9966 80.8394 48.9966C81.4155 48.9966 81.8721 48.8867 82.209 48.667C82.5459 48.4424 82.7876 48.1421 82.9341 47.7661C83.0854 47.3853 83.1611 46.9629 83.1611 46.499ZM87.6875 43.3203V50H86.3325V42.0752H87.6509L87.6875 43.3203ZM90.1631 42.0312L90.1558 43.291C90.0435 43.2666 89.936 43.252 89.8335 43.2471C89.7358 43.2373 89.6235 43.2324 89.4966 43.2324C89.1841 43.2324 88.9082 43.2812 88.6689 43.3789C88.4297 43.4766 88.2271 43.6133 88.061 43.7891C87.895 43.9648 87.7632 44.1748 87.6655 44.4189C87.5728 44.6582 87.5117 44.9219 87.4824 45.21L87.1016 45.4297C87.1016 44.9512 87.1479 44.502 87.2407 44.082C87.3384 43.6621 87.4873 43.291 87.6875 42.9688C87.8877 42.6416 88.1416 42.3877 88.4492 42.207C88.7617 42.0215 89.1328 41.9287 89.5625 41.9287C89.6602 41.9287 89.7725 41.9409 89.8994 41.9653C90.0264 41.9849 90.1143 42.0068 90.1631 42.0312ZM97.1577 50H95.8027V41.2402C95.8027 40.6689 95.9053 40.188 96.1104 39.7974C96.3203 39.4019 96.6206 39.104 97.0112 38.9038C97.4019 38.6987 97.8657 38.5962 98.4028 38.5962C98.5591 38.5962 98.7153 38.606 98.8716 38.6255C99.0327 38.645 99.189 38.6743 99.3403 38.7134L99.2671 39.8193C99.1646 39.7949 99.0474 39.7778 98.9155 39.7681C98.7886 39.7583 98.6616 39.7534 98.5347 39.7534C98.2466 39.7534 97.9976 39.812 97.7876 39.9292C97.5825 40.0415 97.4263 40.2075 97.3188 40.4272C97.2114 40.647 97.1577 40.918 97.1577 41.2402V50ZM98.8423 42.0752V43.1152H94.5503V42.0752H98.8423ZM105.2 48.1689V42.0752H106.562V50H105.266L105.2 48.1689ZM105.456 46.499L106.02 46.4844C106.02 47.0117 105.964 47.5 105.852 47.9492C105.744 48.3936 105.568 48.7793 105.324 49.1064C105.08 49.4336 104.76 49.6899 104.365 49.8755C103.969 50.0562 103.488 50.1465 102.922 50.1465C102.536 50.1465 102.182 50.0903 101.86 49.978C101.542 49.8657 101.269 49.6924 101.04 49.458C100.81 49.2236 100.632 48.9185 100.505 48.5425C100.383 48.1665 100.322 47.7148 100.322 47.1875V42.0752H101.677V47.2021C101.677 47.5586 101.716 47.854 101.794 48.0884C101.877 48.3179 101.987 48.501 102.124 48.6377C102.265 48.7695 102.421 48.8623 102.592 48.916C102.768 48.9697 102.949 48.9966 103.134 48.9966C103.71 48.9966 104.167 48.8867 104.504 48.667C104.841 48.4424 105.083 48.1421 105.229 47.7661C105.38 47.3853 105.456 46.9629 105.456 46.499ZM110.1 38.75V50H108.737V38.75H110.1ZM113.747 38.75V50H112.385V38.75H113.747ZM120.998 43.7671V50H119.643V42.0752H120.925L120.998 43.7671ZM120.676 45.7373L120.112 45.7153C120.117 45.1733 120.197 44.6729 120.354 44.2139C120.51 43.75 120.729 43.3472 121.013 43.0054C121.296 42.6636 121.633 42.3999 122.023 42.2144C122.419 42.0239 122.856 41.9287 123.334 41.9287C123.725 41.9287 124.077 41.9824 124.389 42.0898C124.702 42.1924 124.968 42.3584 125.188 42.5879C125.412 42.8174 125.583 43.1152 125.7 43.4814C125.817 43.8428 125.876 44.2847 125.876 44.8071V50H124.514V44.7925C124.514 44.3774 124.453 44.0454 124.331 43.7964C124.208 43.5425 124.03 43.3594 123.796 43.2471C123.562 43.1299 123.273 43.0713 122.932 43.0713C122.595 43.0713 122.287 43.1421 122.009 43.2837C121.735 43.4253 121.499 43.6206 121.298 43.8696C121.103 44.1187 120.949 44.4043 120.837 44.7266C120.729 45.0439 120.676 45.3809 120.676 45.7373ZM132.607 48.645V44.5654C132.607 44.2529 132.543 43.9819 132.417 43.7524C132.294 43.5181 132.109 43.3374 131.86 43.2104C131.611 43.0835 131.303 43.02 130.937 43.02C130.595 43.02 130.295 43.0786 130.036 43.1958C129.782 43.313 129.582 43.4668 129.436 43.6572C129.294 43.8477 129.223 44.0527 129.223 44.2725H127.868C127.868 43.9893 127.941 43.7085 128.088 43.4302C128.234 43.1519 128.444 42.9004 128.718 42.6758C128.996 42.4463 129.328 42.2656 129.714 42.1338C130.104 41.9971 130.539 41.9287 131.018 41.9287C131.594 41.9287 132.102 42.0264 132.541 42.2217C132.985 42.417 133.332 42.7124 133.581 43.1079C133.835 43.4985 133.962 43.9893 133.962 44.5801V48.2715C133.962 48.5352 133.984 48.8159 134.028 49.1138C134.077 49.4116 134.147 49.668 134.24 49.8828V50H132.827C132.758 49.8438 132.705 49.6362 132.666 49.3774C132.626 49.1138 132.607 48.8696 132.607 48.645ZM132.841 45.1953L132.856 46.1475H131.486C131.101 46.1475 130.756 46.1792 130.454 46.2427C130.151 46.3013 129.897 46.3916 129.692 46.5137C129.487 46.6357 129.331 46.7896 129.223 46.9751C129.116 47.1558 129.062 47.3682 129.062 47.6123C129.062 47.8613 129.118 48.0884 129.23 48.2935C129.343 48.4985 129.511 48.6621 129.736 48.7842C129.965 48.9014 130.246 48.96 130.578 48.96C130.993 48.96 131.359 48.8721 131.677 48.6963C131.994 48.5205 132.246 48.3057 132.431 48.0518C132.622 47.7979 132.724 47.5513 132.739 47.312L133.317 47.9639C133.283 48.1689 133.19 48.396 133.039 48.645C132.888 48.894 132.685 49.1333 132.431 49.3628C132.182 49.5874 131.884 49.7754 131.538 49.9268C131.196 50.0732 130.81 50.1465 130.38 50.1465C129.843 50.1465 129.372 50.0415 128.967 49.8315C128.566 49.6216 128.254 49.3408 128.029 48.9893C127.81 48.6328 127.7 48.2349 127.7 47.7954C127.7 47.3706 127.783 46.9971 127.949 46.6748C128.115 46.3477 128.354 46.0767 128.667 45.8618C128.979 45.6421 129.355 45.4761 129.794 45.3638C130.234 45.2515 130.725 45.1953 131.267 45.1953H132.841ZM137.441 43.6499V50H136.079V42.0752H137.368L137.441 43.6499ZM137.163 45.7373L136.533 45.7153C136.538 45.1733 136.608 44.6729 136.745 44.2139C136.882 43.75 137.084 43.3472 137.353 43.0054C137.622 42.6636 137.956 42.3999 138.356 42.2144C138.757 42.0239 139.221 41.9287 139.748 41.9287C140.119 41.9287 140.461 41.9824 140.773 42.0898C141.086 42.1924 141.357 42.356 141.586 42.5806C141.816 42.8052 141.994 43.0933 142.121 43.4448C142.248 43.7964 142.312 44.2212 142.312 44.7192V50H140.957V44.7852C140.957 44.3701 140.886 44.0381 140.744 43.7891C140.607 43.54 140.412 43.3594 140.158 43.2471C139.904 43.1299 139.606 43.0713 139.265 43.0713C138.864 43.0713 138.53 43.1421 138.261 43.2837C137.993 43.4253 137.778 43.6206 137.617 43.8696C137.456 44.1187 137.338 44.4043 137.265 44.7266C137.197 45.0439 137.163 45.3809 137.163 45.7373ZM142.297 44.9902L141.389 45.2686C141.394 44.834 141.464 44.4165 141.601 44.0161C141.743 43.6157 141.945 43.2593 142.209 42.9468C142.478 42.6343 142.807 42.3877 143.198 42.207C143.588 42.0215 144.035 41.9287 144.538 41.9287C144.963 41.9287 145.339 41.9849 145.666 42.0972C145.998 42.2095 146.276 42.3828 146.501 42.6172C146.73 42.8467 146.904 43.1421 147.021 43.5034C147.138 43.8647 147.197 44.2944 147.197 44.7925V50H145.834V44.7778C145.834 44.3335 145.764 43.9893 145.622 43.7451C145.485 43.4961 145.29 43.3228 145.036 43.2251C144.787 43.1226 144.489 43.0713 144.143 43.0713C143.845 43.0713 143.581 43.1226 143.352 43.2251C143.122 43.3276 142.929 43.4692 142.773 43.6499C142.617 43.8257 142.497 44.0283 142.414 44.2578C142.336 44.4873 142.297 44.7314 142.297 44.9902ZM152.536 50.1465C151.984 50.1465 151.484 50.0537 151.035 49.8682C150.59 49.6777 150.207 49.4116 149.885 49.0698C149.567 48.728 149.323 48.3228 149.152 47.854C148.981 47.3853 148.896 46.8726 148.896 46.3159V46.0083C148.896 45.3638 148.991 44.79 149.182 44.2871C149.372 43.7793 149.631 43.3496 149.958 42.998C150.285 42.6465 150.656 42.3804 151.071 42.1997C151.486 42.019 151.916 41.9287 152.36 41.9287C152.927 41.9287 153.415 42.0264 153.825 42.2217C154.24 42.417 154.58 42.6904 154.843 43.042C155.107 43.3887 155.302 43.7988 155.429 44.2725C155.556 44.7412 155.62 45.2539 155.62 45.8105V46.4185H149.702V45.3125H154.265V45.21C154.245 44.8584 154.172 44.5166 154.045 44.1846C153.923 43.8525 153.728 43.5791 153.459 43.3643C153.19 43.1494 152.824 43.042 152.36 43.042C152.053 43.042 151.77 43.1079 151.511 43.2397C151.252 43.3667 151.03 43.5571 150.844 43.811C150.659 44.0649 150.515 44.375 150.412 44.7412C150.31 45.1074 150.258 45.5298 150.258 46.0083V46.3159C150.258 46.6919 150.31 47.0459 150.412 47.3779C150.52 47.7051 150.673 47.9932 150.874 48.2422C151.079 48.4912 151.325 48.6865 151.613 48.8281C151.906 48.9697 152.238 49.0405 152.609 49.0405C153.088 49.0405 153.493 48.9429 153.825 48.7476C154.157 48.5522 154.448 48.291 154.697 47.9639L155.517 48.6157C155.346 48.8745 155.129 49.1211 154.865 49.3555C154.602 49.5898 154.277 49.7803 153.891 49.9268C153.51 50.0732 153.059 50.1465 152.536 50.1465Z" fill="#A0A0A0"/>
</svg>
