<svg width="236" height="70" viewBox="0 0 236 70" fill="none" xmlns="http://www.w3.org/2000/svg">
<rect x="0.5" y="18.5" width="235" height="51" stroke="#A0A0A0"/>
<path d="M5.40332 6.46582H3.5918V5.32324H5.40332C5.68327 5.32324 5.91113 5.27767 6.08691 5.18652C6.2627 5.09212 6.39128 4.96191 6.47266 4.7959C6.55404 4.62988 6.59473 4.44271 6.59473 4.23438C6.59473 4.02279 6.55404 3.82585 6.47266 3.64355C6.39128 3.46126 6.2627 3.31478 6.08691 3.2041C5.91113 3.09342 5.68327 3.03809 5.40332 3.03809H4.09961V9H2.63477V1.89062H5.40332C5.95996 1.89062 6.43685 1.99154 6.83398 2.19336C7.23438 2.39193 7.54036 2.66699 7.75195 3.01855C7.96354 3.37012 8.06934 3.77214 8.06934 4.22461C8.06934 4.68359 7.96354 5.08073 7.75195 5.41602C7.54036 5.7513 7.23438 6.01009 6.83398 6.19238C6.43685 6.37467 5.95996 6.46582 5.40332 6.46582ZM13.8213 4.78613V5.92871H10.1104V4.78613H13.8213ZM10.5449 1.89062V9H9.08008V1.89062H10.5449ZM14.8662 1.89062V9H13.4062V1.89062H14.8662ZM21.9805 5.2793V5.61621C21.9805 6.15658 21.9072 6.6416 21.7607 7.07129C21.6143 7.50098 21.4076 7.86719 21.1406 8.16992C20.8737 8.4694 20.5547 8.69889 20.1836 8.8584C19.8158 9.0179 19.4072 9.09766 18.958 9.09766C18.512 9.09766 18.1035 9.0179 17.7324 8.8584C17.3646 8.69889 17.0456 8.4694 16.7754 8.16992C16.5052 7.86719 16.2952 7.50098 16.1455 7.07129C15.999 6.6416 15.9258 6.15658 15.9258 5.61621V5.2793C15.9258 4.73568 15.999 4.25065 16.1455 3.82422C16.292 3.39453 16.4987 3.02832 16.7656 2.72559C17.0358 2.42285 17.3548 2.19173 17.7227 2.03223C18.0938 1.87272 18.5023 1.79297 18.9482 1.79297C19.3975 1.79297 19.806 1.87272 20.1738 2.03223C20.5449 2.19173 20.8639 2.42285 21.1309 2.72559C21.401 3.02832 21.6094 3.39453 21.7559 3.82422C21.9056 4.25065 21.9805 4.73568 21.9805 5.2793ZM20.501 5.61621V5.26953C20.501 4.89193 20.4668 4.5599 20.3984 4.27344C20.3301 3.98698 20.2292 3.74609 20.0957 3.55078C19.9622 3.35547 19.7995 3.20898 19.6074 3.11133C19.4154 3.01042 19.1956 2.95996 18.9482 2.95996C18.7008 2.95996 18.4811 3.01042 18.2891 3.11133C18.1003 3.20898 17.9391 3.35547 17.8057 3.55078C17.6755 3.74609 17.5762 3.98698 17.5078 4.27344C17.4395 4.5599 17.4053 4.89193 17.4053 5.26953V5.61621C17.4053 5.99056 17.4395 6.32259 17.5078 6.6123C17.5762 6.89876 17.6771 7.14128 17.8105 7.33984C17.944 7.53516 18.1068 7.68327 18.2988 7.78418C18.4909 7.88509 18.7106 7.93555 18.958 7.93555C19.2054 7.93555 19.4251 7.88509 19.6172 7.78418C19.8092 7.68327 19.9704 7.53516 20.1006 7.33984C20.2308 7.14128 20.3301 6.89876 20.3984 6.6123C20.4668 6.32259 20.501 5.99056 20.501 5.61621ZM28.8213 1.89062V9H27.3564L24.5 4.23438V9H23.0352V1.89062H24.5L27.3613 6.66113V1.89062H28.8213ZM34.8662 7.85742V9H31.082V7.85742H34.8662ZM31.5605 1.89062V9H30.0957V1.89062H31.5605ZM34.373 4.78613V5.89941H31.082V4.78613H34.373ZM34.8613 1.89062V3.03809H31.082V1.89062H34.8613ZM43.9971 1.89062V9H42.5322L39.6758 4.23438V9H38.2109V1.89062H39.6758L42.5371 6.66113V1.89062H43.9971ZM49.1973 1.89062H50.6572V6.58789C50.6572 7.13477 50.54 7.59538 50.3057 7.96973C50.0745 8.34408 49.7539 8.62565 49.3438 8.81445C48.9368 9.00326 48.4681 9.09766 47.9375 9.09766C47.4069 9.09766 46.9349 9.00326 46.5215 8.81445C46.1113 8.62565 45.7891 8.34408 45.5547 7.96973C45.3236 7.59538 45.208 7.13477 45.208 6.58789V1.89062H46.6729V6.58789C46.6729 6.9069 46.7233 7.16732 46.8242 7.36914C46.9251 7.57096 47.07 7.71908 47.2588 7.81348C47.4508 7.90788 47.6771 7.95508 47.9375 7.95508C48.2044 7.95508 48.4307 7.90788 48.6162 7.81348C48.805 7.71908 48.9482 7.57096 49.0459 7.36914C49.1468 7.16732 49.1973 6.9069 49.1973 6.58789V1.89062ZM52.5322 1.89062H53.7725L55.5986 7.11035L57.4248 1.89062H58.665L56.0967 9H55.1006L52.5322 1.89062ZM51.8633 1.89062H53.0986L53.3232 6.97852V9H51.8633V1.89062ZM58.0986 1.89062H59.3389V9H57.874V6.97852L58.0986 1.89062ZM63.4062 5.87988H61.5801L61.5703 4.87402H63.1035C63.3737 4.87402 63.5951 4.83984 63.7676 4.77148C63.9401 4.69987 64.0687 4.59733 64.1533 4.46387C64.2412 4.32715 64.2852 4.16113 64.2852 3.96582C64.2852 3.74447 64.2428 3.56543 64.1582 3.42871C64.0768 3.29199 63.9482 3.19271 63.7725 3.13086C63.5999 3.06901 63.377 3.03809 63.1035 3.03809H62.0879V9H60.623V1.89062H63.1035C63.5169 1.89062 63.8864 1.92969 64.2119 2.00781C64.5407 2.08594 64.819 2.20475 65.0469 2.36426C65.2747 2.52376 65.4489 2.72559 65.5693 2.96973C65.6898 3.21061 65.75 3.49707 65.75 3.8291C65.75 4.12207 65.6833 4.39225 65.5498 4.63965C65.4196 4.88704 65.2129 5.08887 64.9297 5.24512C64.6497 5.40137 64.2835 5.48763 63.8311 5.50391L63.4062 5.87988ZM63.3428 9H61.1797L61.751 7.85742H63.3428C63.5999 7.85742 63.8099 7.81673 63.9727 7.73535C64.1354 7.65072 64.2559 7.53678 64.334 7.39355C64.4121 7.25033 64.4512 7.08594 64.4512 6.90039C64.4512 6.69206 64.4154 6.51139 64.3438 6.3584C64.2754 6.2054 64.1647 6.08822 64.0117 6.00684C63.8587 5.9222 63.6569 5.87988 63.4062 5.87988H61.9951L62.0049 4.87402H63.7627L64.0996 5.26953C64.5326 5.26302 64.8809 5.33952 65.1445 5.49902C65.4115 5.65527 65.6051 5.85872 65.7256 6.10938C65.8493 6.36003 65.9111 6.62858 65.9111 6.91504C65.9111 7.37077 65.8118 7.75488 65.6133 8.06738C65.4147 8.37663 65.1234 8.60938 64.7393 8.76562C64.3584 8.92188 63.8929 9 63.3428 9ZM71.7803 7.85742V9H67.9961V7.85742H71.7803ZM68.4746 1.89062V9H67.0098V1.89062H68.4746ZM71.2871 4.78613V5.89941H67.9961V4.78613H71.2871ZM71.7754 1.89062V3.03809H67.9961V1.89062H71.7754ZM72.6348 1.89062H75.2861C75.8298 1.89062 76.2969 1.97201 76.6875 2.13477C77.0814 2.29753 77.3841 2.53841 77.5957 2.85742C77.8073 3.17643 77.9131 3.56868 77.9131 4.03418C77.9131 4.41504 77.848 4.74219 77.7178 5.01562C77.5908 5.28581 77.4102 5.51204 77.1758 5.69434C76.9447 5.87337 76.6729 6.0166 76.3604 6.12402L75.8965 6.36816H73.5918L73.582 5.22559H75.2959C75.5531 5.22559 75.7663 5.18001 75.9355 5.08887C76.1048 4.99772 76.2318 4.87077 76.3164 4.70801C76.4043 4.54525 76.4482 4.35645 76.4482 4.1416C76.4482 3.91374 76.4059 3.7168 76.3213 3.55078C76.2367 3.38477 76.1081 3.25781 75.9355 3.16992C75.763 3.08203 75.5465 3.03809 75.2861 3.03809H74.0996V9H72.6348V1.89062ZM76.6094 9L74.9883 5.83105L76.5361 5.82129L78.1768 8.93164V9H76.6094Z" fill="#292929"/>
<path d="M30.5806 43.8184V45.4443C30.5806 46.3184 30.5024 47.0557 30.3462 47.6562C30.1899 48.2568 29.9653 48.7402 29.6724 49.1064C29.3794 49.4727 29.0254 49.7388 28.6104 49.9048C28.2002 50.0659 27.7363 50.1465 27.2188 50.1465C26.8086 50.1465 26.4302 50.0952 26.0835 49.9927C25.7368 49.8901 25.4243 49.7266 25.146 49.502C24.8726 49.2725 24.6382 48.9746 24.4429 48.6084C24.2476 48.2422 24.0986 47.7979 23.9961 47.2754C23.8936 46.7529 23.8423 46.1426 23.8423 45.4443V43.8184C23.8423 42.9443 23.9204 42.2119 24.0767 41.6211C24.2378 41.0303 24.4648 40.5566 24.7578 40.2002C25.0508 39.8389 25.4023 39.5801 25.8125 39.4238C26.2275 39.2676 26.6914 39.1895 27.2041 39.1895C27.6191 39.1895 28 39.2407 28.3467 39.3433C28.6982 39.4409 29.0107 39.5996 29.2842 39.8193C29.5576 40.0342 29.7896 40.3223 29.98 40.6836C30.1753 41.04 30.3242 41.4771 30.4268 41.9946C30.5293 42.5122 30.5806 43.1201 30.5806 43.8184ZM29.2183 45.6641V43.5913C29.2183 43.1128 29.189 42.6929 29.1304 42.3315C29.0767 41.9653 28.9961 41.6528 28.8887 41.394C28.7812 41.1353 28.6445 40.9253 28.4785 40.7642C28.3174 40.603 28.1294 40.4858 27.9146 40.4126C27.7046 40.3345 27.4678 40.2954 27.2041 40.2954C26.8818 40.2954 26.5962 40.3564 26.3472 40.4785C26.0981 40.5957 25.8882 40.7837 25.7173 41.0425C25.5513 41.3013 25.4243 41.6406 25.3364 42.0605C25.2485 42.4805 25.2046 42.9907 25.2046 43.5913V45.6641C25.2046 46.1426 25.2314 46.5649 25.2852 46.9312C25.3438 47.2974 25.4292 47.6147 25.5415 47.8833C25.6538 48.147 25.7905 48.3643 25.9517 48.5352C26.1128 48.7061 26.2983 48.833 26.5083 48.916C26.7231 48.9941 26.96 49.0332 27.2188 49.0332C27.5508 49.0332 27.8413 48.9697 28.0903 48.8428C28.3394 48.7158 28.5469 48.5181 28.7129 48.2495C28.8838 47.9761 29.0107 47.627 29.0938 47.2021C29.1768 46.7725 29.2183 46.2598 29.2183 45.6641ZM36.1396 45.7373V45.6641C36.1396 44.5996 36.2593 43.6377 36.4985 42.7783C36.7378 41.9141 37.043 41.1572 37.4141 40.5078C37.7852 39.8584 38.1758 39.3213 38.5859 38.8965C38.9961 38.4668 39.3745 38.1567 39.7212 37.9663L40.0068 38.8599C39.7188 39.0796 39.4258 39.3823 39.1279 39.7681C38.835 40.1538 38.564 40.6274 38.3149 41.189C38.0708 41.7505 37.873 42.4023 37.7217 43.1445C37.5703 43.8867 37.4946 44.7217 37.4946 45.6494V45.752C37.4946 46.6797 37.5703 47.5171 37.7217 48.2642C37.873 49.0063 38.0708 49.6606 38.3149 50.2271C38.564 50.7935 38.835 51.2744 39.1279 51.6699C39.4258 52.0703 39.7188 52.3877 40.0068 52.6221L39.7212 53.4424C39.3745 53.252 38.9961 52.9419 38.5859 52.5122C38.1758 52.0874 37.7852 51.5503 37.4141 50.9009C37.043 50.2563 36.7378 49.502 36.4985 48.6377C36.2593 47.7734 36.1396 46.8066 36.1396 45.7373ZM47.8804 43.8184V45.4443C47.8804 46.3184 47.8022 47.0557 47.646 47.6562C47.4897 48.2568 47.2651 48.7402 46.9722 49.1064C46.6792 49.4727 46.3252 49.7388 45.9102 49.9048C45.5 50.0659 45.0361 50.1465 44.5186 50.1465C44.1084 50.1465 43.73 50.0952 43.3833 49.9927C43.0366 49.8901 42.7241 49.7266 42.4458 49.502C42.1724 49.2725 41.938 48.9746 41.7427 48.6084C41.5474 48.2422 41.3984 47.7979 41.2959 47.2754C41.1934 46.7529 41.1421 46.1426 41.1421 45.4443V43.8184C41.1421 42.9443 41.2202 42.2119 41.3765 41.6211C41.5376 41.0303 41.7646 40.5566 42.0576 40.2002C42.3506 39.8389 42.7021 39.5801 43.1123 39.4238C43.5273 39.2676 43.9912 39.1895 44.5039 39.1895C44.9189 39.1895 45.2998 39.2407 45.6465 39.3433C45.998 39.4409 46.3105 39.5996 46.584 39.8193C46.8574 40.0342 47.0894 40.3223 47.2798 40.6836C47.4751 41.04 47.624 41.4771 47.7266 41.9946C47.8291 42.5122 47.8804 43.1201 47.8804 43.8184ZM46.5181 45.6641V43.5913C46.5181 43.1128 46.4888 42.6929 46.4302 42.3315C46.3765 41.9653 46.2959 41.6528 46.1885 41.394C46.0811 41.1353 45.9443 40.9253 45.7783 40.7642C45.6172 40.603 45.4292 40.4858 45.2144 40.4126C45.0044 40.3345 44.7676 40.2954 44.5039 40.2954C44.1816 40.2954 43.896 40.3564 43.647 40.4785C43.3979 40.5957 43.188 40.7837 43.0171 41.0425C42.8511 41.3013 42.7241 41.6406 42.6362 42.0605C42.5483 42.4805 42.5044 42.9907 42.5044 43.5913V45.6641C42.5044 46.1426 42.5312 46.5649 42.585 46.9312C42.6436 47.2974 42.729 47.6147 42.8413 47.8833C42.9536 48.147 43.0903 48.3643 43.2515 48.5352C43.4126 48.7061 43.5981 48.833 43.8081 48.916C44.0229 48.9941 44.2598 49.0332 44.5186 49.0332C44.8506 49.0332 45.1411 48.9697 45.3901 48.8428C45.6392 48.7158 45.8467 48.5181 46.0127 48.2495C46.1836 47.9761 46.3105 47.627 46.3936 47.2021C46.4766 46.7725 46.5181 46.2598 46.5181 45.6641ZM56.3179 43.8184V45.4443C56.3179 46.3184 56.2397 47.0557 56.0835 47.6562C55.9272 48.2568 55.7026 48.7402 55.4097 49.1064C55.1167 49.4727 54.7627 49.7388 54.3477 49.9048C53.9375 50.0659 53.4736 50.1465 52.9561 50.1465C52.5459 50.1465 52.1675 50.0952 51.8208 49.9927C51.4741 49.8901 51.1616 49.7266 50.8833 49.502C50.6099 49.2725 50.3755 48.9746 50.1802 48.6084C49.9849 48.2422 49.8359 47.7979 49.7334 47.2754C49.6309 46.7529 49.5796 46.1426 49.5796 45.4443V43.8184C49.5796 42.9443 49.6577 42.2119 49.814 41.6211C49.9751 41.0303 50.2021 40.5566 50.4951 40.2002C50.7881 39.8389 51.1396 39.5801 51.5498 39.4238C51.9648 39.2676 52.4287 39.1895 52.9414 39.1895C53.3564 39.1895 53.7373 39.2407 54.084 39.3433C54.4355 39.4409 54.748 39.5996 55.0215 39.8193C55.2949 40.0342 55.5269 40.3223 55.7173 40.6836C55.9126 41.04 56.0615 41.4771 56.1641 41.9946C56.2666 42.5122 56.3179 43.1201 56.3179 43.8184ZM54.9556 45.6641V43.5913C54.9556 43.1128 54.9263 42.6929 54.8677 42.3315C54.814 41.9653 54.7334 41.6528 54.626 41.394C54.5186 41.1353 54.3818 40.9253 54.2158 40.7642C54.0547 40.603 53.8667 40.4858 53.6519 40.4126C53.4419 40.3345 53.2051 40.2954 52.9414 40.2954C52.6191 40.2954 52.3335 40.3564 52.0845 40.4785C51.8354 40.5957 51.6255 40.7837 51.4546 41.0425C51.2886 41.3013 51.1616 41.6406 51.0737 42.0605C50.9858 42.4805 50.9419 42.9907 50.9419 43.5913V45.6641C50.9419 46.1426 50.9688 46.5649 51.0225 46.9312C51.0811 47.2974 51.1665 47.6147 51.2788 47.8833C51.3911 48.147 51.5278 48.3643 51.689 48.5352C51.8501 48.7061 52.0356 48.833 52.2456 48.916C52.4604 48.9941 52.6973 49.0332 52.9561 49.0332C53.2881 49.0332 53.5786 48.9697 53.8276 48.8428C54.0767 48.7158 54.2842 48.5181 54.4502 48.2495C54.6211 47.9761 54.748 47.627 54.8311 47.2021C54.9141 46.7725 54.9556 46.2598 54.9556 45.6641ZM64.7554 43.8184V45.4443C64.7554 46.3184 64.6772 47.0557 64.521 47.6562C64.3647 48.2568 64.1401 48.7402 63.8472 49.1064C63.5542 49.4727 63.2002 49.7388 62.7852 49.9048C62.375 50.0659 61.9111 50.1465 61.3936 50.1465C60.9834 50.1465 60.605 50.0952 60.2583 49.9927C59.9116 49.8901 59.5991 49.7266 59.3208 49.502C59.0474 49.2725 58.813 48.9746 58.6177 48.6084C58.4224 48.2422 58.2734 47.7979 58.1709 47.2754C58.0684 46.7529 58.0171 46.1426 58.0171 45.4443V43.8184C58.0171 42.9443 58.0952 42.2119 58.2515 41.6211C58.4126 41.0303 58.6396 40.5566 58.9326 40.2002C59.2256 39.8389 59.5771 39.5801 59.9873 39.4238C60.4023 39.2676 60.8662 39.1895 61.3789 39.1895C61.7939 39.1895 62.1748 39.2407 62.5215 39.3433C62.873 39.4409 63.1855 39.5996 63.459 39.8193C63.7324 40.0342 63.9644 40.3223 64.1548 40.6836C64.3501 41.04 64.499 41.4771 64.6016 41.9946C64.7041 42.5122 64.7554 43.1201 64.7554 43.8184ZM63.3931 45.6641V43.5913C63.3931 43.1128 63.3638 42.6929 63.3052 42.3315C63.2515 41.9653 63.1709 41.6528 63.0635 41.394C62.9561 41.1353 62.8193 40.9253 62.6533 40.7642C62.4922 40.603 62.3042 40.4858 62.0894 40.4126C61.8794 40.3345 61.6426 40.2954 61.3789 40.2954C61.0566 40.2954 60.771 40.3564 60.522 40.4785C60.2729 40.5957 60.063 40.7837 59.8921 41.0425C59.7261 41.3013 59.5991 41.6406 59.5112 42.0605C59.4233 42.4805 59.3794 42.9907 59.3794 43.5913V45.6641C59.3794 46.1426 59.4062 46.5649 59.46 46.9312C59.5186 47.2974 59.604 47.6147 59.7163 47.8833C59.8286 48.147 59.9653 48.3643 60.1265 48.5352C60.2876 48.7061 60.4731 48.833 60.6831 48.916C60.8979 48.9941 61.1348 49.0332 61.3936 49.0332C61.7256 49.0332 62.0161 48.9697 62.2651 48.8428C62.5142 48.7158 62.7217 48.5181 62.8877 48.2495C63.0586 47.9761 63.1855 47.627 63.2686 47.2021C63.3516 46.7725 63.3931 46.2598 63.3931 45.6641ZM69.7651 45.6641V45.7373C69.7651 46.8066 69.6455 47.7734 69.4062 48.6377C69.167 49.502 68.8618 50.2563 68.4907 50.9009C68.1196 51.5503 67.729 52.0874 67.3188 52.5122C66.9087 52.9419 66.5303 53.252 66.1836 53.4424L65.8979 52.6221C66.186 52.4023 66.4766 52.0947 66.7695 51.6992C67.0625 51.3086 67.3335 50.8252 67.5825 50.249C67.8315 49.6777 68.0317 49.0186 68.1831 48.2715C68.3345 47.5195 68.4102 46.6797 68.4102 45.752V45.6494C68.4102 44.7217 68.3296 43.8843 68.1685 43.1372C68.0073 42.3853 67.7974 41.7236 67.5386 41.1523C67.2847 40.5811 67.0112 40.1001 66.7183 39.7095C66.4302 39.314 66.1567 39.0088 65.8979 38.7939L66.1836 37.9663C66.5303 38.1567 66.9087 38.4668 67.3188 38.8965C67.729 39.3213 68.1196 39.8584 68.4907 40.5078C68.8618 41.1572 69.167 41.9141 69.4062 42.7783C69.6455 43.6377 69.7651 44.5996 69.7651 45.6641ZM82.1431 43.8184V45.4443C82.1431 46.3184 82.0649 47.0557 81.9087 47.6562C81.7524 48.2568 81.5278 48.7402 81.2349 49.1064C80.9419 49.4727 80.5879 49.7388 80.1729 49.9048C79.7627 50.0659 79.2988 50.1465 78.7812 50.1465C78.3711 50.1465 77.9927 50.0952 77.646 49.9927C77.2993 49.8901 76.9868 49.7266 76.7085 49.502C76.4351 49.2725 76.2007 48.9746 76.0054 48.6084C75.8101 48.2422 75.6611 47.7979 75.5586 47.2754C75.4561 46.7529 75.4048 46.1426 75.4048 45.4443V43.8184C75.4048 42.9443 75.4829 42.2119 75.6392 41.6211C75.8003 41.0303 76.0273 40.5566 76.3203 40.2002C76.6133 39.8389 76.9648 39.5801 77.375 39.4238C77.79 39.2676 78.2539 39.1895 78.7666 39.1895C79.1816 39.1895 79.5625 39.2407 79.9092 39.3433C80.2607 39.4409 80.5732 39.5996 80.8467 39.8193C81.1201 40.0342 81.3521 40.3223 81.5425 40.6836C81.7378 41.04 81.8867 41.4771 81.9893 41.9946C82.0918 42.5122 82.1431 43.1201 82.1431 43.8184ZM80.7808 45.6641V43.5913C80.7808 43.1128 80.7515 42.6929 80.6929 42.3315C80.6392 41.9653 80.5586 41.6528 80.4512 41.394C80.3438 41.1353 80.207 40.9253 80.041 40.7642C79.8799 40.603 79.6919 40.4858 79.4771 40.4126C79.2671 40.3345 79.0303 40.2954 78.7666 40.2954C78.4443 40.2954 78.1587 40.3564 77.9097 40.4785C77.6606 40.5957 77.4507 40.7837 77.2798 41.0425C77.1138 41.3013 76.9868 41.6406 76.8989 42.0605C76.811 42.4805 76.7671 42.9907 76.7671 43.5913V45.6641C76.7671 46.1426 76.7939 46.5649 76.8477 46.9312C76.9062 47.2974 76.9917 47.6147 77.104 47.8833C77.2163 48.147 77.353 48.3643 77.5142 48.5352C77.6753 48.7061 77.8608 48.833 78.0708 48.916C78.2856 48.9941 78.5225 49.0332 78.7812 49.0332C79.1133 49.0332 79.4038 48.9697 79.6528 48.8428C79.9019 48.7158 80.1094 48.5181 80.2754 48.2495C80.4463 47.9761 80.5732 47.627 80.6562 47.2021C80.7393 46.7725 80.7808 46.2598 80.7808 45.6641ZM90.5806 43.8184V45.4443C90.5806 46.3184 90.5024 47.0557 90.3462 47.6562C90.1899 48.2568 89.9653 48.7402 89.6724 49.1064C89.3794 49.4727 89.0254 49.7388 88.6104 49.9048C88.2002 50.0659 87.7363 50.1465 87.2188 50.1465C86.8086 50.1465 86.4302 50.0952 86.0835 49.9927C85.7368 49.8901 85.4243 49.7266 85.146 49.502C84.8726 49.2725 84.6382 48.9746 84.4429 48.6084C84.2476 48.2422 84.0986 47.7979 83.9961 47.2754C83.8936 46.7529 83.8423 46.1426 83.8423 45.4443V43.8184C83.8423 42.9443 83.9204 42.2119 84.0767 41.6211C84.2378 41.0303 84.4648 40.5566 84.7578 40.2002C85.0508 39.8389 85.4023 39.5801 85.8125 39.4238C86.2275 39.2676 86.6914 39.1895 87.2041 39.1895C87.6191 39.1895 88 39.2407 88.3467 39.3433C88.6982 39.4409 89.0107 39.5996 89.2842 39.8193C89.5576 40.0342 89.7896 40.3223 89.98 40.6836C90.1753 41.04 90.3242 41.4771 90.4268 41.9946C90.5293 42.5122 90.5806 43.1201 90.5806 43.8184ZM89.2183 45.6641V43.5913C89.2183 43.1128 89.189 42.6929 89.1304 42.3315C89.0767 41.9653 88.9961 41.6528 88.8887 41.394C88.7812 41.1353 88.6445 40.9253 88.4785 40.7642C88.3174 40.603 88.1294 40.4858 87.9146 40.4126C87.7046 40.3345 87.4678 40.2954 87.2041 40.2954C86.8818 40.2954 86.5962 40.3564 86.3472 40.4785C86.0981 40.5957 85.8882 40.7837 85.7173 41.0425C85.5513 41.3013 85.4243 41.6406 85.3364 42.0605C85.2485 42.4805 85.2046 42.9907 85.2046 43.5913V45.6641C85.2046 46.1426 85.2314 46.5649 85.2852 46.9312C85.3438 47.2974 85.4292 47.6147 85.5415 47.8833C85.6538 48.147 85.7905 48.3643 85.9517 48.5352C86.1128 48.7061 86.2983 48.833 86.5083 48.916C86.7231 48.9941 86.96 49.0332 87.2188 49.0332C87.5508 49.0332 87.8413 48.9697 88.0903 48.8428C88.3394 48.7158 88.5469 48.5181 88.7129 48.2495C88.8838 47.9761 89.0107 47.627 89.0938 47.2021C89.1768 46.7725 89.2183 46.2598 89.2183 45.6641ZM99.0181 43.8184V45.4443C99.0181 46.3184 98.9399 47.0557 98.7837 47.6562C98.6274 48.2568 98.4028 48.7402 98.1099 49.1064C97.8169 49.4727 97.4629 49.7388 97.0479 49.9048C96.6377 50.0659 96.1738 50.1465 95.6562 50.1465C95.2461 50.1465 94.8677 50.0952 94.521 49.9927C94.1743 49.8901 93.8618 49.7266 93.5835 49.502C93.3101 49.2725 93.0757 48.9746 92.8804 48.6084C92.6851 48.2422 92.5361 47.7979 92.4336 47.2754C92.3311 46.7529 92.2798 46.1426 92.2798 45.4443V43.8184C92.2798 42.9443 92.3579 42.2119 92.5142 41.6211C92.6753 41.0303 92.9023 40.5566 93.1953 40.2002C93.4883 39.8389 93.8398 39.5801 94.25 39.4238C94.665 39.2676 95.1289 39.1895 95.6416 39.1895C96.0566 39.1895 96.4375 39.2407 96.7842 39.3433C97.1357 39.4409 97.4482 39.5996 97.7217 39.8193C97.9951 40.0342 98.2271 40.3223 98.4175 40.6836C98.6128 41.04 98.7617 41.4771 98.8643 41.9946C98.9668 42.5122 99.0181 43.1201 99.0181 43.8184ZM97.6558 45.6641V43.5913C97.6558 43.1128 97.6265 42.6929 97.5679 42.3315C97.5142 41.9653 97.4336 41.6528 97.3262 41.394C97.2188 41.1353 97.082 40.9253 96.916 40.7642C96.7549 40.603 96.5669 40.4858 96.3521 40.4126C96.1421 40.3345 95.9053 40.2954 95.6416 40.2954C95.3193 40.2954 95.0337 40.3564 94.7847 40.4785C94.5356 40.5957 94.3257 40.7837 94.1548 41.0425C93.9888 41.3013 93.8618 41.6406 93.7739 42.0605C93.686 42.4805 93.6421 42.9907 93.6421 43.5913V45.6641C93.6421 46.1426 93.6689 46.5649 93.7227 46.9312C93.7812 47.2974 93.8667 47.6147 93.979 47.8833C94.0913 48.147 94.228 48.3643 94.3892 48.5352C94.5503 48.7061 94.7358 48.833 94.9458 48.916C95.1606 48.9941 95.3975 49.0332 95.6562 49.0332C95.9883 49.0332 96.2788 48.9697 96.5278 48.8428C96.7769 48.7158 96.9844 48.5181 97.1504 48.2495C97.3213 47.9761 97.4482 47.627 97.5312 47.2021C97.6143 46.7725 97.6558 46.2598 97.6558 45.6641ZM107.448 44.9097V46.0229H103.874V44.9097H107.448ZM115.322 43.8184V45.4443C115.322 46.3184 115.244 47.0557 115.087 47.6562C114.931 48.2568 114.707 48.7402 114.414 49.1064C114.121 49.4727 113.767 49.7388 113.352 49.9048C112.941 50.0659 112.478 50.1465 111.96 50.1465C111.55 50.1465 111.171 50.0952 110.825 49.9927C110.478 49.8901 110.166 49.7266 109.887 49.502C109.614 49.2725 109.379 48.9746 109.184 48.6084C108.989 48.2422 108.84 47.7979 108.737 47.2754C108.635 46.7529 108.583 46.1426 108.583 45.4443V43.8184C108.583 42.9443 108.662 42.2119 108.818 41.6211C108.979 41.0303 109.206 40.5566 109.499 40.2002C109.792 39.8389 110.144 39.5801 110.554 39.4238C110.969 39.2676 111.433 39.1895 111.945 39.1895C112.36 39.1895 112.741 39.2407 113.088 39.3433C113.439 39.4409 113.752 39.5996 114.025 39.8193C114.299 40.0342 114.531 40.3223 114.721 40.6836C114.917 41.04 115.065 41.4771 115.168 41.9946C115.271 42.5122 115.322 43.1201 115.322 43.8184ZM113.959 45.6641V43.5913C113.959 43.1128 113.93 42.6929 113.872 42.3315C113.818 41.9653 113.737 41.6528 113.63 41.394C113.522 41.1353 113.386 40.9253 113.22 40.7642C113.059 40.603 112.871 40.4858 112.656 40.4126C112.446 40.3345 112.209 40.2954 111.945 40.2954C111.623 40.2954 111.337 40.3564 111.088 40.4785C110.839 40.5957 110.629 40.7837 110.458 41.0425C110.292 41.3013 110.166 41.6406 110.078 42.0605C109.99 42.4805 109.946 42.9907 109.946 43.5913V45.6641C109.946 46.1426 109.973 46.5649 110.026 46.9312C110.085 47.2974 110.17 47.6147 110.283 47.8833C110.395 48.147 110.532 48.3643 110.693 48.5352C110.854 48.7061 111.04 48.833 111.25 48.916C111.464 48.9941 111.701 49.0332 111.96 49.0332C112.292 49.0332 112.583 48.9697 112.832 48.8428C113.081 48.7158 113.288 48.5181 113.454 48.2495C113.625 47.9761 113.752 47.627 113.835 47.2021C113.918 46.7725 113.959 46.2598 113.959 45.6641ZM123.759 43.8184V45.4443C123.759 46.3184 123.681 47.0557 123.525 47.6562C123.369 48.2568 123.144 48.7402 122.851 49.1064C122.558 49.4727 122.204 49.7388 121.789 49.9048C121.379 50.0659 120.915 50.1465 120.397 50.1465C119.987 50.1465 119.609 50.0952 119.262 49.9927C118.916 49.8901 118.603 49.7266 118.325 49.502C118.051 49.2725 117.817 48.9746 117.622 48.6084C117.426 48.2422 117.277 47.7979 117.175 47.2754C117.072 46.7529 117.021 46.1426 117.021 45.4443V43.8184C117.021 42.9443 117.099 42.2119 117.255 41.6211C117.417 41.0303 117.644 40.5566 117.937 40.2002C118.229 39.8389 118.581 39.5801 118.991 39.4238C119.406 39.2676 119.87 39.1895 120.383 39.1895C120.798 39.1895 121.179 39.2407 121.525 39.3433C121.877 39.4409 122.189 39.5996 122.463 39.8193C122.736 40.0342 122.968 40.3223 123.159 40.6836C123.354 41.04 123.503 41.4771 123.605 41.9946C123.708 42.5122 123.759 43.1201 123.759 43.8184ZM122.397 45.6641V43.5913C122.397 43.1128 122.368 42.6929 122.309 42.3315C122.255 41.9653 122.175 41.6528 122.067 41.394C121.96 41.1353 121.823 40.9253 121.657 40.7642C121.496 40.603 121.308 40.4858 121.093 40.4126C120.883 40.3345 120.646 40.2954 120.383 40.2954C120.061 40.2954 119.775 40.3564 119.526 40.4785C119.277 40.5957 119.067 40.7837 118.896 41.0425C118.73 41.3013 118.603 41.6406 118.515 42.0605C118.427 42.4805 118.383 42.9907 118.383 43.5913V45.6641C118.383 46.1426 118.41 46.5649 118.464 46.9312C118.522 47.2974 118.608 47.6147 118.72 47.8833C118.833 48.147 118.969 48.3643 119.13 48.5352C119.292 48.7061 119.477 48.833 119.687 48.916C119.902 48.9941 120.139 49.0332 120.397 49.0332C120.729 49.0332 121.02 48.9697 121.269 48.8428C121.518 48.7158 121.726 48.5181 121.892 48.2495C122.062 47.9761 122.189 47.627 122.272 47.2021C122.355 46.7725 122.397 46.2598 122.397 45.6641ZM132.197 43.8184V45.4443C132.197 46.3184 132.119 47.0557 131.962 47.6562C131.806 48.2568 131.582 48.7402 131.289 49.1064C130.996 49.4727 130.642 49.7388 130.227 49.9048C129.816 50.0659 129.353 50.1465 128.835 50.1465C128.425 50.1465 128.046 50.0952 127.7 49.9927C127.353 49.8901 127.041 49.7266 126.762 49.502C126.489 49.2725 126.254 48.9746 126.059 48.6084C125.864 48.2422 125.715 47.7979 125.612 47.2754C125.51 46.7529 125.458 46.1426 125.458 45.4443V43.8184C125.458 42.9443 125.537 42.2119 125.693 41.6211C125.854 41.0303 126.081 40.5566 126.374 40.2002C126.667 39.8389 127.019 39.5801 127.429 39.4238C127.844 39.2676 128.308 39.1895 128.82 39.1895C129.235 39.1895 129.616 39.2407 129.963 39.3433C130.314 39.4409 130.627 39.5996 130.9 39.8193C131.174 40.0342 131.406 40.3223 131.596 40.6836C131.792 41.04 131.94 41.4771 132.043 41.9946C132.146 42.5122 132.197 43.1201 132.197 43.8184ZM130.834 45.6641V43.5913C130.834 43.1128 130.805 42.6929 130.747 42.3315C130.693 41.9653 130.612 41.6528 130.505 41.394C130.397 41.1353 130.261 40.9253 130.095 40.7642C129.934 40.603 129.746 40.4858 129.531 40.4126C129.321 40.3345 129.084 40.2954 128.82 40.2954C128.498 40.2954 128.212 40.3564 127.963 40.4785C127.714 40.5957 127.504 40.7837 127.333 41.0425C127.167 41.3013 127.041 41.6406 126.953 42.0605C126.865 42.4805 126.821 42.9907 126.821 43.5913V45.6641C126.821 46.1426 126.848 46.5649 126.901 46.9312C126.96 47.2974 127.045 47.6147 127.158 47.8833C127.27 48.147 127.407 48.3643 127.568 48.5352C127.729 48.7061 127.915 48.833 128.125 48.916C128.339 48.9941 128.576 49.0332 128.835 49.0332C129.167 49.0332 129.458 48.9697 129.707 48.8428C129.956 48.7158 130.163 48.5181 130.329 48.2495C130.5 47.9761 130.627 47.627 130.71 47.2021C130.793 46.7725 130.834 46.2598 130.834 45.6641ZM140.634 43.8184V45.4443C140.634 46.3184 140.556 47.0557 140.4 47.6562C140.244 48.2568 140.019 48.7402 139.726 49.1064C139.433 49.4727 139.079 49.7388 138.664 49.9048C138.254 50.0659 137.79 50.1465 137.272 50.1465C136.862 50.1465 136.484 50.0952 136.137 49.9927C135.791 49.8901 135.478 49.7266 135.2 49.502C134.926 49.2725 134.692 48.9746 134.497 48.6084C134.301 48.2422 134.152 47.7979 134.05 47.2754C133.947 46.7529 133.896 46.1426 133.896 45.4443V43.8184C133.896 42.9443 133.974 42.2119 134.13 41.6211C134.292 41.0303 134.519 40.5566 134.812 40.2002C135.104 39.8389 135.456 39.5801 135.866 39.4238C136.281 39.2676 136.745 39.1895 137.258 39.1895C137.673 39.1895 138.054 39.2407 138.4 39.3433C138.752 39.4409 139.064 39.5996 139.338 39.8193C139.611 40.0342 139.843 40.3223 140.034 40.6836C140.229 41.04 140.378 41.4771 140.48 41.9946C140.583 42.5122 140.634 43.1201 140.634 43.8184ZM139.272 45.6641V43.5913C139.272 43.1128 139.243 42.6929 139.184 42.3315C139.13 41.9653 139.05 41.6528 138.942 41.394C138.835 41.1353 138.698 40.9253 138.532 40.7642C138.371 40.603 138.183 40.4858 137.968 40.4126C137.758 40.3345 137.521 40.2954 137.258 40.2954C136.936 40.2954 136.65 40.3564 136.401 40.4785C136.152 40.5957 135.942 40.7837 135.771 41.0425C135.605 41.3013 135.478 41.6406 135.39 42.0605C135.302 42.4805 135.258 42.9907 135.258 43.5913V45.6641C135.258 46.1426 135.285 46.5649 135.339 46.9312C135.397 47.2974 135.483 47.6147 135.595 47.8833C135.708 48.147 135.844 48.3643 136.005 48.5352C136.167 48.7061 136.352 48.833 136.562 48.916C136.777 48.9941 137.014 49.0332 137.272 49.0332C137.604 49.0332 137.895 48.9697 138.144 48.8428C138.393 48.7158 138.601 48.5181 138.767 48.2495C138.938 47.9761 139.064 47.627 139.147 47.2021C139.23 46.7725 139.272 46.2598 139.272 45.6641Z" fill="#A0A0A0"/>
</svg>
