<svg width="199" height="37" viewBox="0 0 199 37" fill="none" xmlns="http://www.w3.org/2000/svg">
<g clip-path="url(#clip0_38_36)">
<path d="M32.9181 29.4557H0.374756C1.04865 32.4012 2.68515 35.2447 5.20301 37C18.3569 37 31.5099 37 44.6638 37C39.8396 35.2455 35.8975 32.4012 32.9181 29.4557Z" fill="#FF7630"/>
<path d="M27.613 18.5069H2.222C0.624906 21.3334 -0.0827664 24.1196 0.00810521 26.6324C10.308 26.6324 20.6086 26.6324 30.9085 26.6324C28.9817 24.1196 27.8526 21.3342 27.613 18.5077V18.5069Z" fill="#FF7630"/>
<path d="M29.6371 9.53238C23.1836 9.53238 16.7309 9.53238 10.2774 9.53238C7.51269 11.6062 5.26744 13.828 3.5835 16.0781H27.3315C27.5527 13.828 28.3352 11.6062 29.6371 9.53238Z" fill="#FF7630"/>
<path d="M35.2526 3.69815C30.512 3.69815 25.7713 3.69815 21.0307 3.69815C17.9644 4.9845 15.1554 6.42203 12.6553 7.9768C18.5611 7.9768 24.467 7.9768 30.3728 7.9768C31.707 6.42203 33.3515 4.9845 35.2526 3.69815Z" fill="#FF7630"/>
<path d="M42.3816 0C39.1167 0 35.8517 0 32.5868 0C29.7183 0.709066 26.9552 1.51839 24.3344 2.42877C28.5273 2.42877 32.7203 2.42877 36.914 2.42877C38.6068 1.51839 40.4419 0.708258 42.3824 0H42.3816Z" fill="#FF7630"/>
<path d="M54.5109 16.4654C54.5109 16.8518 54.4071 17.2165 54.2005 17.5585C53.993 17.9005 53.6753 18.2004 53.2459 18.4567C52.8165 18.713 52.2801 18.9144 51.6368 19.0591C50.9934 19.2038 50.2311 19.2766 49.3505 19.2766C48.8993 19.2766 48.4369 19.2394 47.9633 19.165C47.5564 19.1052 47.1085 19.0122 46.6203 18.8861C46.1322 18.7599 45.6585 18.5772 45.2002 18.3395L45.8773 16.7775C46.2842 16.9861 46.6927 17.1478 47.1036 17.2626C47.5146 17.3782 47.8861 17.4615 48.219 17.5132C48.6115 17.573 48.9886 17.6062 49.3513 17.6135C50.4611 17.6135 51.2877 17.5132 51.8314 17.3119C52.375 17.1114 52.6468 16.847 52.6468 16.5196C52.6468 16.3118 52.5616 16.159 52.3919 16.0619C52.2214 15.9657 51.9592 15.9099 51.6038 15.8946C51.5226 15.8873 51.369 15.8776 51.143 15.8671C50.917 15.8558 50.642 15.8428 50.3163 15.8283C49.9906 15.8137 49.6287 15.7984 49.2291 15.7838C48.8294 15.7693 48.4152 15.7507 47.9858 15.728C47.5564 15.7054 47.1623 15.6464 46.8037 15.5493C46.445 15.4531 46.1338 15.3132 45.8716 15.1305C45.6087 14.9486 45.4036 14.7255 45.2556 14.4611C45.1077 14.1975 45.0337 13.8862 45.0337 13.5297C45.0337 13.1731 45.1503 12.836 45.3835 12.5198C45.6167 12.2037 45.9496 11.9288 46.3823 11.6943C46.8149 11.4599 47.3401 11.2763 47.9585 11.1421C48.5761 11.0079 49.2661 10.9416 50.0284 10.9416C50.4795 10.9416 50.9387 10.9748 51.4043 11.0419C51.804 11.1017 52.2495 11.1866 52.7417 11.2982C53.2338 11.4097 53.7123 11.5731 54.1787 11.7889L53.5909 13.3284C53.3617 13.2321 53.1028 13.1383 52.8141 13.0494C52.5254 12.9605 52.2238 12.8821 51.9094 12.8149C51.5949 12.7478 51.2765 12.6961 50.9548 12.6589C50.6331 12.6217 50.3243 12.6031 50.0284 12.6031C49.5845 12.6031 49.172 12.6233 48.7908 12.6646C48.4096 12.7058 48.0783 12.7672 47.7976 12.8489C47.5162 12.9306 47.2966 13.0316 47.1374 13.1505C46.9782 13.2693 46.8986 13.4035 46.8986 13.5523C46.8986 13.7455 46.9798 13.8911 47.143 13.9873C47.3055 14.0843 47.5459 14.1401 47.8644 14.1547C48.2198 14.17 48.7192 14.1918 49.3626 14.2218C50.0059 14.2517 50.7682 14.2848 51.6488 14.322C52.0927 14.3447 52.49 14.4037 52.8422 14.5007C53.1936 14.5977 53.4928 14.7352 53.7413 14.9138C53.989 15.0925 54.1795 15.3116 54.313 15.572C54.4457 15.8323 54.5125 16.1298 54.5125 16.4646L54.5109 16.4654Z" fill="#FF7630"/>
<path d="M64.7311 15.082C64.7311 15.6472 64.6241 16.1808 64.4094 16.6829C64.1947 17.1849 63.8875 17.6256 63.4886 18.0048C63.089 18.384 62.604 18.6855 62.0347 18.9087C61.4645 19.1318 60.8252 19.2434 60.1151 19.2434C59.405 19.2434 58.7649 19.1318 58.1956 18.9087C57.6254 18.6855 57.1397 18.384 56.736 18.0048C56.3323 17.6256 56.0235 17.1849 55.8096 16.6829C55.5949 16.1808 55.4879 15.6472 55.4879 15.082V11.1769H57.4412V15.082C57.4412 15.4167 57.4951 15.7345 57.6021 16.036C57.709 16.3376 57.8723 16.6036 58.0902 16.8341C58.3081 17.0645 58.5856 17.2472 58.9225 17.3806C59.2587 17.5148 59.6567 17.5811 60.1151 17.5811C60.5735 17.5811 60.97 17.514 61.3029 17.3806C61.6358 17.2464 61.9117 17.0645 62.1296 16.8341C62.3475 16.6036 62.5108 16.3376 62.6177 16.036C62.7247 15.7345 62.7785 15.4167 62.7785 15.082V11.1769H64.7319V15.082H64.7311Z" fill="#FF7630"/>
<path d="M76.1841 16.8219C76.1841 17.2084 76.1174 17.5383 75.9847 17.8091C75.8512 18.0808 75.6719 18.3039 75.4467 18.4786C75.2207 18.6532 74.9546 18.7818 74.6474 18.8634C74.3402 18.9451 74.0097 18.9863 73.6542 18.9863H66.374V11.1761H73.6542C74.0241 11.1761 74.3643 11.2189 74.6755 11.3046C74.9859 11.3903 75.2529 11.5221 75.4749 11.7008C75.6968 11.8795 75.8705 12.1083 75.9968 12.3872C76.1222 12.6662 76.1858 13.0025 76.1858 13.3971C76.1785 13.6356 76.1343 13.862 76.0523 14.0778C75.9855 14.2638 75.8786 14.4498 75.7306 14.6357C75.5826 14.8217 75.3679 14.9745 75.0872 15.0933C75.3687 15.2275 75.5826 15.3925 75.7306 15.5898C75.8786 15.787 75.9855 15.9787 76.0523 16.1646C76.1335 16.3805 76.1777 16.5996 76.1858 16.8227L76.1841 16.8219ZM74.3088 13.5749C74.3088 13.3963 74.2758 13.2556 74.2091 13.1513C74.1423 13.047 74.0627 12.971 73.9703 12.9225C73.8778 12.874 73.7837 12.8424 73.6872 12.8279C73.5907 12.8133 73.5135 12.8052 73.454 12.8052H68.3266V14.356H73.454C73.4982 14.356 73.5666 14.3487 73.659 14.3333C73.7515 14.3188 73.8456 14.2832 73.9421 14.2274C74.0378 14.1716 74.123 14.0916 74.197 13.9873C74.271 13.883 74.308 13.7455 74.308 13.5741L74.3088 13.5749ZM74.3088 16.5875C74.3088 16.4088 74.2758 16.2681 74.2091 16.1638C74.1423 16.0595 74.0627 15.9819 73.9703 15.9293C73.8778 15.8776 73.7837 15.8436 73.6872 15.8291C73.5907 15.8145 73.5135 15.8064 73.454 15.8064H68.3266V17.3572H73.454C73.4982 17.3572 73.5666 17.3499 73.659 17.3345C73.7515 17.32 73.8456 17.286 73.9421 17.2343C74.0378 17.1825 74.123 17.1041 74.197 16.9998C74.271 16.8955 74.308 16.7581 74.308 16.5867L74.3088 16.5875Z" fill="#FF7630"/>
<path d="M77.7153 18.9871V11.1769H79.6687V17.3022H86.5604V18.9871H77.7153Z" fill="#FF7630"/>
<path d="M88.0916 18.9871V11.1769H90.0449V18.9871H88.0916Z" fill="#FF7630"/>
<path d="M102.052 15.082C102.052 15.6472 101.93 16.1808 101.686 16.6829C101.442 17.185 101.089 17.6256 100.626 18.0048C100.164 18.384 99.5976 18.6856 98.9286 18.9087C98.2587 19.1319 97.4988 19.2434 96.6479 19.2434C95.7971 19.2434 95.0372 19.1319 94.3673 18.9087C93.6974 18.6856 93.1313 18.384 92.6697 18.0048C92.2073 17.6256 91.8543 17.185 91.6098 16.6829C91.3653 16.1808 91.2439 15.6472 91.2439 15.082C91.2439 14.5169 91.3661 13.9832 91.6098 13.4812C91.8535 12.9791 92.2073 12.5384 92.6697 12.1592C93.1321 11.78 93.6982 11.4785 94.3673 11.2553C95.0372 11.0322 95.7971 10.9206 96.6479 10.9206C97.2173 10.9206 97.7432 10.9748 98.2241 11.0823C98.705 11.1898 99.1433 11.337 99.539 11.5229C99.9346 11.7089 100.284 11.9304 100.588 12.1867C100.891 12.443 101.146 12.7244 101.353 13.0292L99.633 13.9105C99.3958 13.5386 99.0299 13.2281 98.5345 12.9791C98.0392 12.73 97.4095 12.6055 96.6479 12.6055C96.0858 12.6055 95.5921 12.6726 95.1667 12.806C94.7413 12.9403 94.3842 13.1206 94.0955 13.3469C93.8068 13.5741 93.5905 13.8361 93.4465 14.1336C93.3026 14.4312 93.2302 14.7473 93.2302 15.082C93.2302 15.4167 93.3026 15.7329 93.4465 16.0304C93.5905 16.3279 93.8068 16.5899 94.0955 16.8171C94.3842 17.0443 94.7413 17.2246 95.1667 17.358C95.5921 17.4922 96.0858 17.5585 96.6479 17.5585C97.4843 17.5585 98.1702 17.4154 98.7066 17.1292C99.243 16.843 99.6218 16.4799 99.8437 16.0409H95.8816V14.5233H102.008C102.022 14.6123 102.033 14.7036 102.041 14.7966C102.048 14.8896 102.052 14.9842 102.052 15.0812V15.082Z" fill="#FF7630"/>
<path d="M111.041 18.9871V15.7741H105.426V18.9871H103.472V11.1769H105.426V14.0891H111.041V11.1769H112.994V18.9871H111.041Z" fill="#FF7630"/>
<path d="M119.908 12.861V18.9863H117.966V12.861H114.47V11.1761H123.404V12.861H119.908Z" fill="#FF7630"/>
<path d="M129.796 18.9871V11.1769H139.151V12.8618H131.749V14.2678H138.263V15.7854H131.749V17.303H139.439V18.9879H129.795L129.796 18.9871Z" fill="#FF7630"/>
<path d="M148.318 18.9871L142.702 13.5313V18.9871H140.749V11.1769H142.702L148.318 16.6327V11.1769H150.271V18.9871H148.318Z" fill="#FF7630"/>
<path d="M162.5 15.082C162.5 15.6472 162.378 16.1808 162.134 16.6829C161.891 17.185 161.537 17.6256 161.074 18.0048C160.612 18.384 160.046 18.6856 159.377 18.9087C158.707 19.1319 157.947 19.2434 157.096 19.2434C156.245 19.2434 155.485 19.1319 154.815 18.9087C154.146 18.6856 153.579 18.384 153.118 18.0048C152.655 17.6256 152.302 17.185 152.058 16.6829C151.813 16.1808 151.692 15.6472 151.692 15.082C151.692 14.5169 151.814 13.9832 152.058 13.4812C152.302 12.9791 152.655 12.5384 153.118 12.1592C153.58 11.78 154.146 11.4785 154.815 11.2553C155.485 11.0322 156.245 10.9206 157.096 10.9206C157.665 10.9206 158.191 10.9748 158.672 11.0823C159.153 11.1898 159.591 11.337 159.987 11.5229C160.383 11.7089 160.733 11.9304 161.036 12.1867C161.339 12.443 161.595 12.7244 161.801 13.0292L160.081 13.9105C159.844 13.5386 159.478 13.2281 158.983 12.9791C158.487 12.73 157.858 12.6055 157.096 12.6055C156.534 12.6055 156.04 12.6726 155.615 12.806C155.189 12.9403 154.832 13.1206 154.544 13.3469C154.255 13.5741 154.039 13.8361 153.895 14.1336C153.751 14.4312 153.678 14.7473 153.678 15.082C153.678 15.4167 153.751 15.7329 153.895 16.0304C154.039 16.3279 154.255 16.5899 154.544 16.8171C154.832 17.0443 155.189 17.2246 155.615 17.358C156.04 17.4922 156.534 17.5585 157.096 17.5585C157.932 17.5585 158.618 17.4154 159.155 17.1292C159.691 16.843 160.07 16.4799 160.292 16.0409H156.33V14.5233H162.456C162.47 14.6123 162.482 14.7036 162.489 14.7966C162.496 14.8896 162.5 14.9842 162.5 15.0812V15.082Z" fill="#FF7630"/>
<path d="M163.92 18.9871V11.1769H165.874V18.9871H163.92Z" fill="#FF7630"/>
<path d="M175.251 18.9871L169.636 13.5313V18.9871H167.682V11.1769H169.636L175.251 16.6327V11.1769H177.204V18.9871H175.251Z" fill="#FF7630"/>
<path d="M178.791 18.9871V11.1769H188.146V12.8618H180.744V14.2678H187.258V15.7854H180.744V17.303H188.434V18.9879H178.79L178.791 18.9871Z" fill="#FF7630"/>
<path d="M199 16.4654C199 16.8518 198.896 17.2165 198.689 17.5585C198.482 17.9005 198.164 18.2004 197.735 18.4567C197.306 18.713 196.769 18.9144 196.126 19.0591C195.482 19.2038 194.72 19.2766 193.84 19.2766C193.388 19.2766 192.926 19.2394 192.452 19.165C192.045 19.1052 191.597 19.0122 191.109 18.8861C190.621 18.7599 190.148 18.5772 189.689 18.3395L190.366 16.7775C190.773 16.9861 191.182 17.1478 191.593 17.2626C192.004 17.3782 192.375 17.4615 192.708 17.5132C193.1 17.573 193.478 17.6062 193.84 17.6135C194.95 17.6135 195.777 17.5132 196.32 17.3119C196.864 17.1114 197.136 16.847 197.136 16.5196C197.136 16.3118 197.051 16.159 196.881 16.0619C196.71 15.9657 196.448 15.9099 196.093 15.8946C196.012 15.8873 195.858 15.8776 195.632 15.8671C195.406 15.8558 195.131 15.8428 194.805 15.8283C194.48 15.8137 194.117 15.7984 193.718 15.7838C193.318 15.7693 192.904 15.7507 192.475 15.728C192.045 15.7054 191.651 15.6464 191.293 15.5493C190.934 15.4531 190.623 15.3132 190.361 15.1305C190.098 14.9486 189.893 14.7255 189.745 14.4611C189.597 14.1975 189.523 13.8862 189.523 13.5297C189.523 13.1731 189.639 12.836 189.873 12.5198C190.106 12.2037 190.439 11.9288 190.871 11.6943C191.304 11.4599 191.829 11.2763 192.447 11.1421C193.065 11.0079 193.755 10.9416 194.517 10.9416C194.969 10.9416 195.428 10.9748 195.893 11.0419C196.293 11.1017 196.739 11.1866 197.231 11.2982C197.723 11.4097 198.202 11.5731 198.668 11.7889L198.08 13.3284C197.851 13.2321 197.592 13.1383 197.303 13.0494C197.014 12.9605 196.713 12.8821 196.398 12.8149C196.084 12.7478 195.766 12.6961 195.444 12.6589C195.122 12.6217 194.813 12.6031 194.517 12.6031C194.074 12.6031 193.661 12.6233 193.28 12.6646C192.899 12.7058 192.567 12.7672 192.287 12.8489C192.005 12.9306 191.786 13.0316 191.626 13.1505C191.467 13.2693 191.388 13.4035 191.388 13.5523C191.388 13.7455 191.469 13.8911 191.632 13.9873C191.794 14.0843 192.035 14.1401 192.353 14.1547C192.709 14.17 193.208 14.1918 193.852 14.2218C194.495 14.2517 195.257 14.2848 196.138 14.322C196.582 14.3447 196.979 14.4037 197.33 14.5007C197.682 14.5977 197.981 14.7352 198.229 14.9138C198.477 15.0925 198.668 15.3116 198.801 15.572C198.935 15.8323 199.001 16.1298 199.001 16.4646L199 16.4654Z" fill="#FF7630"/>
<path d="M45.3031 25.3307V21.5954H49.7775V22.4015H46.2375V23.0742H49.3529V23.8002H46.2375V24.5263H49.9158V25.3323H45.3031V25.3307Z" fill="white"/>
<path d="M53.0521 25.3307V21.5954H53.9866V24.5246H57.2829V25.3307H53.0529H53.0521Z" fill="white"/>
<path d="M60.4192 25.3307V21.5954H64.8936V22.4015H61.3536V23.0742H64.469V23.8002H61.3536V24.5263H65.0319V25.3323H60.42L60.4192 25.3307Z" fill="white"/>
<path d="M70.9489 25.3307H69.7604L67.8231 21.5954H68.8581L70.3547 24.5408L71.8512 21.5954H72.8862L70.9489 25.3307Z" fill="white"/>
<path d="M79.9348 25.3307L79.5046 24.5837H76.8878L76.4576 25.3307H75.4652L77.5987 21.5954H78.7929L80.9264 25.3307H79.934H79.9348ZM78.1994 22.2948L77.3502 23.7784H79.0486L78.1994 22.2948Z" fill="white"/>
<path d="M86.2934 22.4007V25.3299H85.3646V22.4007H83.6927V21.5946H87.9653V22.4007H86.2934Z" fill="white"/>
<path d="M95.8679 23.4631C95.8679 23.7331 95.8108 23.9886 95.6982 24.2287C95.5849 24.4689 95.4216 24.6799 95.2069 24.861C94.993 25.0421 94.7316 25.1868 94.4244 25.2935C94.1164 25.4003 93.7682 25.4536 93.379 25.4536C92.9898 25.4536 92.6416 25.4003 92.3336 25.2935C92.0256 25.1868 91.765 25.0429 91.5503 24.861C91.3364 24.6799 91.1723 24.4689 91.059 24.2287C90.9456 23.9886 90.8893 23.7331 90.8893 23.4631C90.8893 23.193 90.9456 22.9375 91.059 22.6974C91.1723 22.4573 91.3356 22.2463 91.5503 22.0651C91.7642 21.884 92.0256 21.7393 92.3336 21.6326C92.6416 21.5259 92.9898 21.4725 93.379 21.4725C93.7682 21.4725 94.1164 21.5259 94.4244 21.6326C94.7324 21.7393 94.993 21.8832 95.2069 22.0651C95.4208 22.2471 95.5849 22.4573 95.6982 22.6974C95.8116 22.9375 95.8679 23.193 95.8679 23.4631ZM94.886 23.4631C94.886 23.303 94.8547 23.151 94.7927 23.0071C94.7308 22.8631 94.6367 22.7362 94.5113 22.6254C94.3858 22.5155 94.2282 22.4282 94.0392 22.3643C93.8503 22.3004 93.6299 22.2681 93.3782 22.2681C93.1265 22.2681 92.907 22.3004 92.7172 22.3643C92.5274 22.4282 92.3706 22.5155 92.2451 22.6254C92.1197 22.7354 92.0256 22.8631 91.9637 23.0071C91.9017 23.151 91.8704 23.303 91.8704 23.4631C91.8704 23.6232 91.9009 23.7752 91.9637 23.9191C92.0256 24.063 92.1197 24.1907 92.2451 24.3007C92.3706 24.4106 92.5282 24.498 92.7172 24.5618C92.9061 24.6257 93.1265 24.658 93.3782 24.658C93.6299 24.658 93.8494 24.6257 94.0392 24.5618C94.2282 24.498 94.3858 24.4106 94.5113 24.3007C94.6367 24.1907 94.7308 24.063 94.7927 23.9191C94.8547 23.7752 94.886 23.6232 94.886 23.4631Z" fill="white"/>
<path d="M103.506 22.8227C103.506 22.986 103.485 23.1308 103.442 23.2553C103.4 23.3798 103.344 23.4873 103.275 23.5779C103.206 23.6684 103.128 23.7444 103.042 23.8051C102.955 23.8657 102.867 23.9134 102.779 23.949L103.426 25.3307H102.428L101.834 24.0557H99.8863V25.3307H98.9519V21.5954H102.29C102.389 21.5954 102.509 21.6132 102.648 21.6488C102.788 21.6843 102.921 21.7474 103.048 21.838C103.175 21.9285 103.284 22.053 103.372 22.2115C103.461 22.37 103.505 22.5737 103.505 22.8227H103.506ZM102.571 22.8227C102.571 22.7338 102.555 22.6618 102.524 22.6068C102.492 22.5519 102.453 22.509 102.407 22.4791C102.362 22.4492 102.315 22.4282 102.267 22.4177C102.219 22.4071 102.181 22.4015 102.153 22.4015H99.8863V23.2496H102.153C102.173 23.2496 102.207 23.2431 102.253 23.231C102.299 23.2189 102.346 23.1963 102.394 23.1647C102.441 23.1324 102.483 23.0895 102.518 23.0337C102.554 22.9788 102.571 22.9084 102.571 22.8227Z" fill="white"/>
<path d="M116.557 24.3484C116.465 24.5085 116.346 24.6548 116.202 24.7882C116.057 24.9216 115.886 25.038 115.692 25.1375C115.497 25.2369 115.279 25.3146 115.039 25.3695C114.798 25.4245 114.534 25.452 114.248 25.452C113.841 25.452 113.478 25.3986 113.158 25.2919C112.838 25.1852 112.567 25.0413 112.346 24.8594C112.124 24.6783 111.955 24.4672 111.839 24.2271C111.722 23.987 111.664 23.7315 111.664 23.4614C111.664 23.1914 111.722 22.9359 111.839 22.6958C111.955 22.4557 112.124 22.2446 112.346 22.0635C112.567 21.8824 112.838 21.7377 113.158 21.631C113.478 21.5242 113.841 21.4709 114.248 21.4709C114.524 21.4709 114.78 21.4968 115.015 21.5485C115.251 21.6002 115.464 21.673 115.655 21.7676C115.846 21.8622 116.013 21.9722 116.159 22.0983C116.304 22.2244 116.424 22.3627 116.52 22.5114L115.681 22.9383C115.628 22.8494 115.557 22.7661 115.467 22.6877C115.376 22.6093 115.269 22.5422 115.142 22.4848C115.017 22.4282 114.875 22.3829 114.718 22.3489C114.56 22.315 114.391 22.298 114.211 22.298C113.949 22.298 113.721 22.3295 113.524 22.391C113.327 22.4532 113.164 22.5373 113.035 22.644C112.906 22.7508 112.809 22.8745 112.744 23.0151C112.678 23.1558 112.645 23.3046 112.645 23.4606C112.645 23.6167 112.678 23.7606 112.744 23.9013C112.809 24.042 112.906 24.1657 113.035 24.2724C113.165 24.3791 113.327 24.4648 113.524 24.5287C113.72 24.5926 113.949 24.6249 114.211 24.6249C114.403 24.6249 114.58 24.6063 114.742 24.5691C114.904 24.5319 115.05 24.481 115.177 24.4171C115.304 24.3532 115.414 24.278 115.506 24.1932C115.598 24.1075 115.667 24.0169 115.713 23.9207L116.556 24.3476L116.557 24.3484Z" fill="white"/>
<path d="M123.738 25.3307L123.308 24.5837H120.691L120.261 25.3307H119.269L121.402 21.5954H122.596L124.73 25.3307H123.737H123.738ZM122.003 22.2948L121.154 23.7784H122.852L122.003 22.2948Z" fill="white"/>
<path d="M132.347 24.295C132.347 24.4802 132.315 24.6378 132.251 24.7672C132.188 24.8974 132.102 25.0041 131.994 25.0874C131.886 25.1706 131.758 25.2321 131.612 25.2717C131.465 25.3105 131.307 25.3307 131.137 25.3307H127.655V21.5954H131.137C131.314 21.5954 131.476 21.6156 131.625 21.6568C131.774 21.6981 131.901 21.7611 132.007 21.846C132.113 21.9317 132.196 22.0409 132.256 22.1743C132.316 22.3077 132.346 22.4686 132.346 22.657C132.343 22.771 132.321 22.8793 132.283 22.9828C132.25 23.0717 132.2 23.1607 132.129 23.2496C132.058 23.3386 131.955 23.4113 131.821 23.4687C131.955 23.5326 132.058 23.6118 132.129 23.7064C132.2 23.801 132.251 23.8924 132.283 23.9813C132.321 24.0848 132.343 24.1891 132.346 24.2958L132.347 24.295ZM131.45 22.7419C131.45 22.6562 131.434 22.5891 131.403 22.5389C131.371 22.4888 131.333 22.4524 131.289 22.4298C131.244 22.4063 131.199 22.3918 131.154 22.3845C131.108 22.3772 131.071 22.374 131.042 22.374H128.59V23.1154H131.042C131.063 23.1154 131.096 23.1122 131.14 23.1049C131.184 23.0976 131.229 23.0806 131.275 23.054C131.321 23.0273 131.362 22.9893 131.397 22.9391C131.433 22.889 131.45 22.8235 131.45 22.7419ZM131.45 24.1826C131.45 24.0969 131.434 24.0298 131.403 23.9797C131.371 23.9296 131.333 23.8924 131.289 23.8673C131.244 23.8423 131.199 23.8261 131.154 23.8196C131.108 23.8123 131.071 23.8091 131.042 23.8091H128.59V24.5505H131.042C131.063 24.5505 131.096 24.5473 131.14 24.54C131.184 24.5327 131.229 24.5166 131.275 24.4923C131.321 24.4672 131.362 24.43 131.397 24.3799C131.433 24.3298 131.45 24.2643 131.45 24.1826Z" fill="white"/>
<path d="M145.371 24.3484C145.28 24.5085 145.161 24.6548 145.016 24.7882C144.871 24.9216 144.701 25.038 144.506 25.1375C144.311 25.2369 144.093 25.3146 143.853 25.3695C143.612 25.4245 143.349 25.452 143.062 25.452C142.656 25.452 142.292 25.3986 141.972 25.2919C141.652 25.1852 141.381 25.0413 141.16 24.8594C140.939 24.6783 140.77 24.4672 140.653 24.2271C140.536 23.987 140.478 23.7315 140.478 23.4614C140.478 23.1914 140.536 22.9359 140.653 22.6958C140.77 22.4557 140.939 22.2446 141.16 22.0635C141.381 21.8824 141.652 21.7377 141.972 21.631C142.292 21.5242 142.656 21.4709 143.062 21.4709C143.338 21.4709 143.594 21.4968 143.83 21.5485C144.065 21.6002 144.278 21.673 144.469 21.7676C144.66 21.8622 144.828 21.9722 144.973 22.0983C145.118 22.2244 145.239 22.3627 145.334 22.5114L144.495 22.9383C144.442 22.8494 144.371 22.7661 144.281 22.6877C144.191 22.6093 144.083 22.5422 143.957 22.4848C143.831 22.4282 143.69 22.3829 143.532 22.3489C143.374 22.315 143.206 22.298 143.025 22.298C142.763 22.298 142.535 22.3295 142.338 22.391C142.142 22.4532 141.978 22.5373 141.85 22.644C141.72 22.7508 141.623 22.8745 141.558 23.0151C141.493 23.1558 141.46 23.3046 141.46 23.4606C141.46 23.6167 141.493 23.7606 141.558 23.9013C141.623 24.042 141.72 24.1657 141.85 24.2724C141.979 24.3791 142.142 24.4648 142.338 24.5287C142.534 24.5926 142.763 24.6249 143.025 24.6249C143.217 24.6249 143.394 24.6063 143.556 24.5691C143.719 24.5319 143.864 24.481 143.991 24.4171C144.118 24.3532 144.228 24.278 144.32 24.1932C144.412 24.1075 144.481 24.0169 144.527 23.9207L145.37 24.3476L145.371 24.3484Z" fill="white"/>
<path d="M153.221 23.4631C153.221 23.7331 153.164 23.9886 153.051 24.2287C152.938 24.4689 152.774 24.6799 152.56 24.861C152.346 25.0421 152.085 25.1868 151.777 25.2935C151.469 25.4003 151.121 25.4536 150.732 25.4536C150.343 25.4536 149.994 25.4003 149.686 25.2935C149.378 25.1868 149.118 25.0429 148.903 24.861C148.689 24.6799 148.525 24.4689 148.412 24.2287C148.298 23.9886 148.242 23.7331 148.242 23.4631C148.242 23.193 148.298 22.9375 148.412 22.6974C148.525 22.4573 148.688 22.2463 148.903 22.0651C149.117 21.884 149.378 21.7393 149.686 21.6326C149.994 21.5259 150.343 21.4725 150.732 21.4725C151.121 21.4725 151.469 21.5259 151.777 21.6326C152.085 21.7393 152.346 21.8832 152.56 22.0651C152.774 22.2471 152.938 22.4573 153.051 22.6974C153.165 22.9375 153.221 23.193 153.221 23.4631ZM152.239 23.4631C152.239 23.303 152.208 23.151 152.146 23.0071C152.084 22.8631 151.99 22.7362 151.864 22.6254C151.739 22.5155 151.581 22.4282 151.392 22.3643C151.203 22.3004 150.983 22.2681 150.731 22.2681C150.479 22.2681 150.26 22.3004 150.07 22.3643C149.88 22.4282 149.723 22.5155 149.598 22.6254C149.473 22.7354 149.378 22.8631 149.317 23.0071C149.255 23.151 149.223 23.303 149.223 23.4631C149.223 23.6232 149.254 23.7752 149.317 23.9191C149.378 24.063 149.473 24.1907 149.598 24.3007C149.723 24.4106 149.881 24.498 150.07 24.5618C150.259 24.6257 150.479 24.658 150.731 24.658C150.983 24.658 151.202 24.6257 151.392 24.5618C151.581 24.498 151.739 24.4106 151.864 24.3007C151.99 24.1907 152.084 24.063 152.146 23.9191C152.208 23.7752 152.239 23.6232 152.239 23.4631Z" fill="white"/>
<path d="M159.924 25.3307L157.238 22.7217V25.3307H156.304V21.5954H157.238L159.924 24.2045V21.5954H160.859V25.3307H159.924Z" fill="white"/>
<path d="M166.569 22.4007V25.3299H165.641V22.4007H163.969V21.5946H168.241V22.4007H166.569Z" fill="white"/>
<path d="M175.906 22.8227C175.906 22.986 175.885 23.1308 175.842 23.2553C175.8 23.3798 175.744 23.4873 175.675 23.5779C175.606 23.6684 175.528 23.7444 175.442 23.8051C175.355 23.8657 175.267 23.9134 175.179 23.949L175.826 25.3307H174.828L174.234 24.0557H172.286V25.3307H171.352V21.5954H174.69C174.789 21.5954 174.909 21.6132 175.048 21.6488C175.188 21.6843 175.321 21.7474 175.448 21.838C175.575 21.9285 175.684 22.053 175.772 22.2115C175.861 22.37 175.905 22.5737 175.905 22.8227H175.906ZM174.971 22.8227C174.971 22.7338 174.955 22.6618 174.924 22.6068C174.892 22.5519 174.853 22.509 174.807 22.4791C174.761 22.4492 174.715 22.4282 174.666 22.4177C174.619 22.4071 174.58 22.4015 174.552 22.4015H172.286V23.2496H174.552C174.573 23.2496 174.607 23.2431 174.653 23.231C174.699 23.2189 174.746 23.1963 174.794 23.1647C174.841 23.1324 174.883 23.0895 174.918 23.0337C174.954 22.9788 174.971 22.9084 174.971 22.8227Z" fill="white"/>
<path d="M183.861 23.4631C183.861 23.7331 183.804 23.9886 183.692 24.2287C183.578 24.4689 183.415 24.6799 183.2 24.861C182.987 25.0421 182.725 25.1868 182.418 25.2935C182.11 25.4003 181.762 25.4536 181.373 25.4536C180.983 25.4536 180.635 25.4003 180.327 25.2935C180.019 25.1868 179.759 25.0429 179.544 24.861C179.33 24.6799 179.166 24.4689 179.053 24.2287C178.939 23.9886 178.883 23.7331 178.883 23.4631C178.883 23.193 178.939 22.9375 179.053 22.6974C179.166 22.4573 179.329 22.2463 179.544 22.0651C179.758 21.884 180.019 21.7393 180.327 21.6326C180.635 21.5259 180.983 21.4725 181.373 21.4725C181.762 21.4725 182.11 21.5259 182.418 21.6326C182.726 21.7393 182.987 21.8832 183.2 22.0651C183.414 22.2471 183.578 22.4573 183.692 22.6974C183.805 22.9375 183.861 23.193 183.861 23.4631ZM182.88 23.4631C182.88 23.303 182.848 23.151 182.786 23.0071C182.724 22.8631 182.63 22.7362 182.505 22.6254C182.379 22.5155 182.222 22.4282 182.033 22.3643C181.844 22.3004 181.623 22.2681 181.372 22.2681C181.12 22.2681 180.9 22.3004 180.711 22.3643C180.521 22.4282 180.364 22.5155 180.239 22.6254C180.113 22.7354 180.019 22.8631 179.957 23.0071C179.895 23.151 179.864 23.303 179.864 23.4631C179.864 23.6232 179.894 23.7752 179.957 23.9191C180.019 24.063 180.113 24.1907 180.239 24.3007C180.364 24.4106 180.522 24.498 180.711 24.5618C180.9 24.6257 181.12 24.658 181.372 24.658C181.623 24.658 181.843 24.6257 182.033 24.5618C182.222 24.498 182.379 24.4106 182.505 24.3007C182.63 24.1907 182.724 24.063 182.786 23.9191C182.848 23.7752 182.88 23.6232 182.88 23.4631Z" fill="white"/>
<path d="M186.945 25.3307V21.5954H187.88V24.5246H191.176V25.3307H186.946H186.945Z" fill="white"/>
<path d="M198.633 24.1244C198.633 24.3096 198.583 24.4834 198.484 24.6475C198.385 24.8109 198.233 24.9548 198.027 25.0769C197.822 25.1998 197.565 25.296 197.257 25.3647C196.949 25.4342 196.585 25.469 196.164 25.469C195.948 25.469 195.727 25.4512 195.5 25.4156C195.306 25.3873 195.092 25.3429 194.858 25.2822C194.625 25.2216 194.398 25.1343 194.178 25.0211L194.502 24.274C194.697 24.3735 194.892 24.4511 195.089 24.506C195.285 24.561 195.462 24.6014 195.622 24.6257C195.809 24.654 195.99 24.6702 196.163 24.6734C196.694 24.6734 197.089 24.6257 197.349 24.5295C197.609 24.4333 197.739 24.3072 197.739 24.1503C197.739 24.0509 197.698 23.9781 197.617 23.9312C197.536 23.8851 197.41 23.8584 197.24 23.8512C197.2 23.8479 197.127 23.8431 197.019 23.8382C196.912 23.8326 196.78 23.8269 196.624 23.8196C196.468 23.8123 196.295 23.8051 196.103 23.7986C195.912 23.7913 195.714 23.7824 195.509 23.7719C195.304 23.7614 195.115 23.7331 194.944 23.6862C194.772 23.6401 194.624 23.573 194.498 23.4857C194.373 23.3984 194.275 23.2917 194.204 23.1655C194.133 23.0394 194.098 22.8906 194.098 22.72C194.098 22.5494 194.153 22.3886 194.265 22.2374C194.377 22.0862 194.536 21.9544 194.743 21.8428C194.949 21.7304 195.201 21.6423 195.496 21.5784C195.791 21.5145 196.122 21.4822 196.486 21.4822C196.702 21.4822 196.921 21.4984 197.144 21.5299C197.335 21.5582 197.549 21.5994 197.783 21.6528C198.019 21.7062 198.248 21.7846 198.471 21.8873L198.189 22.6238C198.08 22.5777 197.956 22.5333 197.818 22.4904C197.68 22.4476 197.536 22.4104 197.385 22.378C197.235 22.3457 197.083 22.3214 196.928 22.3037C196.775 22.2859 196.627 22.277 196.485 22.277C196.273 22.277 196.076 22.2867 195.894 22.3061C195.711 22.3255 195.553 22.3554 195.418 22.3942C195.284 22.433 195.179 22.4815 195.102 22.5381C195.026 22.5947 194.988 22.6594 194.988 22.7306C194.988 22.8235 195.027 22.8923 195.105 22.9383C195.183 22.9844 195.298 23.0111 195.45 23.0184C195.619 23.0257 195.858 23.0362 196.166 23.0507C196.474 23.0653 196.838 23.0806 197.26 23.0984C197.472 23.1089 197.662 23.1372 197.83 23.1841C197.998 23.2302 198.141 23.2965 198.26 23.3814C198.378 23.4671 198.47 23.5714 198.534 23.6959C198.597 23.8204 198.629 23.9627 198.629 24.1228L198.633 24.1244Z" fill="white"/>
</g>
<defs>
<clipPath id="clip0_38_36">
<rect width="199" height="37" fill="white"/>
</clipPath>
</defs>
</svg>
